<svg width="126" height="41" viewBox="0 0 126 41" fill="none" xmlns="http://www.w3.org/2000/svg">
<path d="M16.3691 26.148L25.7519 18.5347L25.7392 7.35437L16.8026 14.0727L16.3691 26.148Z" fill="#BDBDBD"/>
<g filter="url(#filter0_d)">
<path d="M27.9829 14.06L15.9178 22.5708L28.4469 28.8176L27.9829 14.06Z" fill="#F2F2F2"/>
</g>
<g filter="url(#filter1_d)">
<path d="M19.0336 9.59805L19.4975 24.3556L6.96844 18.1088L19.0336 9.59805Z" fill="#E0E0E0"/>
</g>
<g filter="url(#filter2_d)">
<path d="M13.0226 32.86L13.6843 24.8094L9.20958 22.5784L23.5082 11.829L23.5285 29.7176L19.0539 27.4866L13.0226 32.86Z" fill="white"/>
</g>
<path d="M41.7327 19.54C41.6527 19.6867 41.5293 19.76 41.3627 19.76C41.2627 19.76 41.1493 19.7233 41.0227 19.65C40.896 19.5767 40.7393 19.4967 40.5527 19.41C40.3727 19.3167 40.156 19.2333 39.9027 19.16C39.6493 19.08 39.3493 19.04 39.0027 19.04C38.7027 19.04 38.4327 19.08 38.1927 19.16C37.9527 19.2333 37.746 19.3367 37.5727 19.47C37.406 19.6033 37.276 19.76 37.1827 19.94C37.096 20.1133 37.0527 20.3033 37.0527 20.51C37.0527 20.77 37.126 20.9867 37.2727 21.16C37.426 21.3333 37.626 21.4833 37.8727 21.61C38.1193 21.7367 38.3993 21.85 38.7127 21.95C39.026 22.0433 39.346 22.1467 39.6727 22.26C40.006 22.3667 40.3293 22.4867 40.6427 22.62C40.956 22.7533 41.236 22.92 41.4827 23.12C41.7293 23.32 41.926 23.5667 42.0727 23.86C42.226 24.1467 42.3027 24.4933 42.3027 24.9C42.3027 25.3667 42.2193 25.8 42.0527 26.2C41.886 26.5933 41.6393 26.9367 41.3127 27.23C40.986 27.5167 40.586 27.7433 40.1127 27.91C39.6393 28.0767 39.0927 28.16 38.4727 28.16C37.766 28.16 37.126 28.0467 36.5527 27.82C35.9793 27.5867 35.4927 27.29 35.0927 26.93L35.5127 26.25C35.566 26.1633 35.6293 26.0967 35.7027 26.05C35.776 26.0033 35.8727 25.98 35.9927 25.98C36.1127 25.98 36.2393 26.0267 36.3727 26.12C36.506 26.2133 36.666 26.3167 36.8527 26.43C37.046 26.5433 37.276 26.6467 37.5427 26.74C37.816 26.8333 38.156 26.88 38.5627 26.88C38.9093 26.88 39.2127 26.8367 39.4727 26.75C39.7327 26.6567 39.9493 26.5333 40.1227 26.38C40.296 26.2267 40.4227 26.05 40.5027 25.85C40.5893 25.65 40.6327 25.4367 40.6327 25.21C40.6327 24.93 40.556 24.7 40.4027 24.52C40.256 24.3333 40.0593 24.1767 39.8127 24.05C39.566 23.9167 39.2827 23.8033 38.9627 23.71C38.6493 23.61 38.326 23.5067 37.9927 23.4C37.666 23.2933 37.3427 23.1733 37.0227 23.04C36.7093 22.9 36.4293 22.7267 36.1827 22.52C35.936 22.3133 35.736 22.06 35.5827 21.76C35.436 21.4533 35.3627 21.0833 35.3627 20.65C35.3627 20.2633 35.4427 19.8933 35.6027 19.54C35.7627 19.18 35.996 18.8667 36.3027 18.6C36.6093 18.3267 36.986 18.11 37.4327 17.95C37.8793 17.79 38.3893 17.71 38.9627 17.71C39.6293 17.71 40.226 17.8167 40.7527 18.03C41.286 18.2367 41.746 18.5233 42.1327 18.89L41.7327 19.54ZM44.6045 28V13.27H46.3845V19.23C46.8179 18.77 47.2979 18.4033 47.8245 18.13C48.3512 17.85 48.9579 17.71 49.6445 17.71C50.1979 17.71 50.6845 17.8033 51.1045 17.99C51.5312 18.17 51.8845 18.43 52.1645 18.77C52.4512 19.1033 52.6679 19.5067 52.8145 19.98C52.9612 20.4533 53.0345 20.9767 53.0345 21.55V28H51.2545V21.55C51.2545 20.7833 51.0779 20.19 50.7245 19.77C50.3779 19.3433 49.8445 19.13 49.1245 19.13C48.5979 19.13 48.1045 19.2567 47.6445 19.51C47.1912 19.7633 46.7712 20.1067 46.3845 20.54V28H44.6045ZM57.6978 17.87V28H55.9178V17.87H57.6978ZM58.0978 14.69C58.0978 14.8633 58.0611 15.0267 57.9878 15.18C57.9211 15.3267 57.8278 15.46 57.7078 15.58C57.5945 15.6933 57.4611 15.7833 57.3078 15.85C57.1545 15.9167 56.9911 15.95 56.8178 15.95C56.6445 15.95 56.4811 15.9167 56.3278 15.85C56.1811 15.7833 56.0478 15.6933 55.9278 15.58C55.8145 15.46 55.7245 15.3267 55.6578 15.18C55.5911 15.0267 55.5578 14.8633 55.5578 14.69C55.5578 14.5167 55.5911 14.3533 55.6578 14.2C55.7245 14.04 55.8145 13.9033 55.9278 13.79C56.0478 13.67 56.1811 13.5767 56.3278 13.51C56.4811 13.4433 56.6445 13.41 56.8178 13.41C56.9911 13.41 57.1545 13.4433 57.3078 13.51C57.4611 13.5767 57.5945 13.67 57.7078 13.79C57.8278 13.9033 57.9211 14.04 57.9878 14.2C58.0611 14.3533 58.0978 14.5167 58.0978 14.69ZM61.235 28V19.39L60.115 19.26C59.975 19.2267 59.8583 19.1767 59.765 19.11C59.6783 19.0367 59.635 18.9333 59.635 18.8V18.07H61.235V17.09C61.235 16.51 61.315 15.9967 61.475 15.55C61.6417 15.0967 61.875 14.7167 62.175 14.41C62.4817 14.0967 62.8483 13.86 63.275 13.7C63.7017 13.54 64.1817 13.46 64.715 13.46C65.1683 13.46 65.5883 13.5267 65.975 13.66L65.935 14.55C65.9283 14.6833 65.8717 14.7633 65.765 14.79C65.6583 14.8167 65.5083 14.83 65.315 14.83H65.005C64.6983 14.83 64.4183 14.87 64.165 14.95C63.9183 15.03 63.705 15.16 63.525 15.34C63.345 15.52 63.205 15.7567 63.105 16.05C63.0117 16.3433 62.965 16.7067 62.965 17.14V18.07H65.895V19.36H63.025V28H61.235ZM70.6433 28.16C69.8433 28.16 69.2266 27.9367 68.7933 27.49C68.3666 27.0433 68.1533 26.4 68.1533 25.56V19.36H66.9333C66.8266 19.36 66.7366 19.33 66.6633 19.27C66.5899 19.2033 66.5533 19.1033 66.5533 18.97V18.26L68.2133 18.05L68.6233 14.92C68.6366 14.82 68.6799 14.74 68.7533 14.68C68.8266 14.6133 68.9199 14.58 69.0333 14.58H69.9333V18.07H72.8333V19.36H69.9333V25.44C69.9333 25.8667 70.0366 26.1833 70.2433 26.39C70.4499 26.5967 70.7166 26.7 71.0433 26.7C71.2299 26.7 71.3899 26.6767 71.5233 26.63C71.6633 26.5767 71.7833 26.52 71.8833 26.46C71.9833 26.4 72.0666 26.3467 72.1333 26.3C72.2066 26.2467 72.2699 26.22 72.3233 26.22C72.4166 26.22 72.4999 26.2767 72.5733 26.39L73.0933 27.24C72.7866 27.5267 72.4166 27.7533 71.9833 27.92C71.5499 28.08 71.1033 28.16 70.6433 28.16ZM78.4442 17.7C78.8842 17.7 79.2942 17.75 79.6742 17.85C80.0609 17.9433 80.4109 18.0833 80.7242 18.27H83.4742V18.93C83.4742 19.15 83.3342 19.29 83.0542 19.35L81.9042 19.51C82.1309 19.9433 82.2442 20.4267 82.2442 20.96C82.2442 21.4533 82.1476 21.9033 81.9542 22.31C81.7676 22.71 81.5042 23.0533 81.1642 23.34C80.8309 23.6267 80.4309 23.8467 79.9642 24C79.5042 24.1533 78.9976 24.23 78.4442 24.23C77.9709 24.23 77.5242 24.1733 77.1042 24.06C76.8909 24.1933 76.7276 24.3367 76.6142 24.49C76.5076 24.6433 76.4542 24.7933 76.4542 24.94C76.4542 25.18 76.5509 25.3633 76.7442 25.49C76.9376 25.61 77.1942 25.6967 77.5142 25.75C77.8342 25.8033 78.1976 25.8367 78.6042 25.85C79.0109 25.8633 79.4242 25.8867 79.8442 25.92C80.2709 25.9467 80.6876 25.9967 81.0942 26.07C81.5009 26.1433 81.8642 26.2633 82.1842 26.43C82.5042 26.5967 82.7609 26.8267 82.9542 27.12C83.1476 27.4133 83.2442 27.7933 83.2442 28.26C83.2442 28.6933 83.1342 29.1133 82.9142 29.52C82.7009 29.9267 82.3909 30.2867 81.9842 30.6C81.5776 30.92 81.0809 31.1733 80.4942 31.36C79.9076 31.5533 79.2442 31.65 78.5042 31.65C77.7642 31.65 77.1142 31.5767 76.5542 31.43C76.0009 31.2833 75.5409 31.0867 75.1742 30.84C74.8076 30.5933 74.5309 30.3067 74.3442 29.98C74.1642 29.66 74.0742 29.3233 74.0742 28.97C74.0742 28.47 74.2309 28.0467 74.5442 27.7C74.8642 27.3467 75.3009 27.0667 75.8542 26.86C75.5676 26.7267 75.3376 26.55 75.1642 26.33C74.9976 26.1033 74.9142 25.8033 74.9142 25.43C74.9142 25.2833 74.9409 25.1333 74.9942 24.98C75.0476 24.82 75.1276 24.6633 75.2342 24.51C75.3476 24.3567 75.4842 24.21 75.6442 24.07C75.8042 23.93 75.9909 23.8067 76.2042 23.7C75.7042 23.42 75.3109 23.05 75.0242 22.59C74.7442 22.1233 74.6042 21.58 74.6042 20.96C74.6042 20.4667 74.6976 20.02 74.8842 19.62C75.0776 19.2133 75.3442 18.87 75.6842 18.59C76.0242 18.3033 76.4276 18.0833 76.8942 17.93C77.3676 17.7767 77.8842 17.7 78.4442 17.7ZM81.6042 28.55C81.6042 28.2967 81.5342 28.0933 81.3942 27.94C81.2542 27.7867 81.0642 27.67 80.8242 27.59C80.5842 27.5033 80.3076 27.44 79.9942 27.4C79.6809 27.36 79.3509 27.3333 79.0042 27.32C78.6576 27.3 78.3042 27.28 77.9442 27.26C77.5842 27.24 77.2409 27.2033 76.9142 27.15C76.5342 27.33 76.2242 27.55 75.9842 27.81C75.7509 28.07 75.6342 28.38 75.6342 28.74C75.6342 28.9667 75.6909 29.1767 75.8042 29.37C75.9242 29.57 76.1042 29.74 76.3442 29.88C76.5842 30.0267 76.8842 30.14 77.2442 30.22C77.6109 30.3067 78.0409 30.35 78.5342 30.35C79.0142 30.35 79.4442 30.3067 79.8242 30.22C80.2042 30.1333 80.5242 30.01 80.7842 29.85C81.0509 29.69 81.2542 29.5 81.3942 29.28C81.5342 29.06 81.6042 28.8167 81.6042 28.55ZM78.4442 23.05C78.8042 23.05 79.1209 23 79.3942 22.9C79.6742 22.8 79.9076 22.66 80.0942 22.48C80.2809 22.3 80.4209 22.0867 80.5142 21.84C80.6076 21.5867 80.6542 21.31 80.6542 21.01C80.6542 20.39 80.4642 19.8967 80.0842 19.53C79.7109 19.1633 79.1642 18.98 78.4442 18.98C77.7309 18.98 77.1842 19.1633 76.8042 19.53C76.4309 19.8967 76.2442 20.39 76.2442 21.01C76.2442 21.31 76.2909 21.5867 76.3842 21.84C76.4842 22.0867 76.6276 22.3 76.8142 22.48C77.0009 22.66 77.2309 22.8 77.5042 22.9C77.7776 23 78.0909 23.05 78.4442 23.05ZM89.2591 17.71C89.8657 17.71 90.4257 17.8133 90.9391 18.02C91.4524 18.22 91.8957 18.5133 92.2691 18.9C92.6424 19.28 92.9324 19.7533 93.1391 20.32C93.3524 20.88 93.4591 21.52 93.4591 22.24C93.4591 22.52 93.4291 22.7067 93.3691 22.8C93.3091 22.8933 93.1957 22.94 93.0291 22.94H86.2891C86.3024 23.58 86.3891 24.1367 86.5491 24.61C86.7091 25.0833 86.9291 25.48 87.2091 25.8C87.4891 26.1133 87.8224 26.35 88.2091 26.51C88.5957 26.6633 89.0291 26.74 89.5091 26.74C89.9557 26.74 90.3391 26.69 90.6591 26.59C90.9857 26.4833 91.2657 26.37 91.4991 26.25C91.7324 26.13 91.9257 26.02 92.0791 25.92C92.2391 25.8133 92.3757 25.76 92.4891 25.76C92.6357 25.76 92.7491 25.8167 92.8291 25.93L93.3291 26.58C93.1091 26.8467 92.8457 27.08 92.5391 27.28C92.2324 27.4733 91.9024 27.6333 91.5491 27.76C91.2024 27.8867 90.8424 27.98 90.4691 28.04C90.0957 28.1067 89.7257 28.14 89.3591 28.14C88.6591 28.14 88.0124 28.0233 87.4191 27.79C86.8324 27.55 86.3224 27.2033 85.8891 26.75C85.4624 26.29 85.1291 25.7233 84.8891 25.05C84.6491 24.3767 84.5291 23.6033 84.5291 22.73C84.5291 22.0233 84.6357 21.3633 84.8491 20.75C85.0691 20.1367 85.3824 19.6067 85.7891 19.16C86.1957 18.7067 86.6924 18.3533 87.2791 18.1C87.8657 17.84 88.5257 17.71 89.2591 17.71ZM89.2991 19.02C88.4391 19.02 87.7624 19.27 87.2691 19.77C86.7757 20.2633 86.4691 20.95 86.3491 21.83H91.8591C91.8591 21.4167 91.8024 21.04 91.6891 20.7C91.5757 20.3533 91.4091 20.0567 91.1891 19.81C90.9691 19.5567 90.6991 19.3633 90.3791 19.23C90.0657 19.09 89.7057 19.02 89.2991 19.02ZM97.7173 17.87V28H95.9373V17.87H97.7173ZM98.1173 14.69C98.1173 14.8633 98.0807 15.0267 98.0073 15.18C97.9407 15.3267 97.8473 15.46 97.7273 15.58C97.614 15.6933 97.4807 15.7833 97.3273 15.85C97.174 15.9167 97.0107 15.95 96.8373 15.95C96.664 15.95 96.5007 15.9167 96.3473 15.85C96.2007 15.7833 96.0673 15.6933 95.9473 15.58C95.834 15.46 95.744 15.3267 95.6773 15.18C95.6107 15.0267 95.5773 14.8633 95.5773 14.69C95.5773 14.5167 95.6107 14.3533 95.6773 14.2C95.744 14.04 95.834 13.9033 95.9473 13.79C96.0673 13.67 96.2007 13.5767 96.3473 13.51C96.5007 13.4433 96.664 13.41 96.8373 13.41C97.0107 13.41 97.174 13.4433 97.3273 13.51C97.4807 13.5767 97.614 13.67 97.7273 13.79C97.8473 13.9033 97.9407 14.04 98.0073 14.2C98.0807 14.3533 98.1173 14.5167 98.1173 14.69ZM106.655 19.54C106.575 19.6867 106.451 19.76 106.285 19.76C106.185 19.76 106.071 19.7233 105.945 19.65C105.818 19.5767 105.661 19.4967 105.475 19.41C105.295 19.3167 105.078 19.2333 104.825 19.16C104.571 19.08 104.271 19.04 103.925 19.04C103.625 19.04 103.355 19.08 103.115 19.16C102.875 19.2333 102.668 19.3367 102.495 19.47C102.328 19.6033 102.198 19.76 102.105 19.94C102.018 20.1133 101.975 20.3033 101.975 20.51C101.975 20.77 102.048 20.9867 102.195 21.16C102.348 21.3333 102.548 21.4833 102.795 21.61C103.041 21.7367 103.321 21.85 103.635 21.95C103.948 22.0433 104.268 22.1467 104.595 22.26C104.928 22.3667 105.251 22.4867 105.565 22.62C105.878 22.7533 106.158 22.92 106.405 23.12C106.651 23.32 106.848 23.5667 106.995 23.86C107.148 24.1467 107.225 24.4933 107.225 24.9C107.225 25.3667 107.141 25.8 106.975 26.2C106.808 26.5933 106.561 26.9367 106.235 27.23C105.908 27.5167 105.508 27.7433 105.035 27.91C104.561 28.0767 104.015 28.16 103.395 28.16C102.688 28.16 102.048 28.0467 101.475 27.82C100.901 27.5867 100.415 27.29 100.015 26.93L100.435 26.25C100.488 26.1633 100.551 26.0967 100.625 26.05C100.698 26.0033 100.795 25.98 100.915 25.98C101.035 25.98 101.161 26.0267 101.295 26.12C101.428 26.2133 101.588 26.3167 101.775 26.43C101.968 26.5433 102.198 26.6467 102.465 26.74C102.738 26.8333 103.078 26.88 103.485 26.88C103.831 26.88 104.135 26.8367 104.395 26.75C104.655 26.6567 104.871 26.5333 105.045 26.38C105.218 26.2267 105.345 26.05 105.425 25.85C105.511 25.65 105.555 25.4367 105.555 25.21C105.555 24.93 105.478 24.7 105.325 24.52C105.178 24.3333 104.981 24.1767 104.735 24.05C104.488 23.9167 104.205 23.8033 103.885 23.71C103.571 23.61 103.248 23.5067 102.915 23.4C102.588 23.2933 102.265 23.1733 101.945 23.04C101.631 22.9 101.351 22.7267 101.105 22.52C100.858 22.3133 100.658 22.06 100.505 21.76C100.358 21.4533 100.285 21.0833 100.285 20.65C100.285 20.2633 100.365 19.8933 100.525 19.54C100.685 19.18 100.918 18.8667 101.225 18.6C101.531 18.3267 101.908 18.11 102.355 17.95C102.801 17.79 103.311 17.71 103.885 17.71C104.551 17.71 105.148 17.8167 105.675 18.03C106.208 18.2367 106.668 18.5233 107.055 18.89L106.655 19.54ZM112.596 28.16C111.796 28.16 111.18 27.9367 110.746 27.49C110.32 27.0433 110.106 26.4 110.106 25.56V19.36H108.886C108.78 19.36 108.69 19.33 108.616 19.27C108.543 19.2033 108.506 19.1033 108.506 18.97V18.26L110.166 18.05L110.576 14.92C110.59 14.82 110.633 14.74 110.706 14.68C110.78 14.6133 110.873 14.58 110.986 14.58H111.886V18.07H114.786V19.36H111.886V25.44C111.886 25.8667 111.99 26.1833 112.196 26.39C112.403 26.5967 112.67 26.7 112.996 26.7C113.183 26.7 113.343 26.6767 113.476 26.63C113.616 26.5767 113.736 26.52 113.836 26.46C113.936 26.4 114.02 26.3467 114.086 26.3C114.16 26.2467 114.223 26.22 114.276 26.22C114.37 26.22 114.453 26.2767 114.526 26.39L115.046 27.24C114.74 27.5267 114.37 27.7533 113.936 27.92C113.503 28.08 113.056 28.16 112.596 28.16Z" fill="white"/>
<defs>
<filter id="filter0_d" x="11.9178" y="10.06" width="20.5291" height="22.7575" filterUnits="userSpaceOnUse" color-interpolation-filters="sRGB">
<feFlood flood-opacity="0" result="BackgroundImageFix"/>
<feColorMatrix in="SourceAlpha" type="matrix" values="0 0 0 0 0 0 0 0 0 0 0 0 0 0 0 0 0 0 127 0"/>
<feOffset/>
<feGaussianBlur stdDeviation="2"/>
<feColorMatrix type="matrix" values="0 0 0 0 0 0 0 0 0 0 0 0 0 0 0 0 0 0 0.1 0"/>
<feBlend mode="normal" in2="BackgroundImageFix" result="effect1_dropShadow"/>
<feBlend mode="normal" in="SourceGraphic" in2="effect1_dropShadow" result="shape"/>
</filter>
<filter id="filter1_d" x="2.96844" y="5.59805" width="20.5291" height="22.7575" filterUnits="userSpaceOnUse" color-interpolation-filters="sRGB">
<feFlood flood-opacity="0" result="BackgroundImageFix"/>
<feColorMatrix in="SourceAlpha" type="matrix" values="0 0 0 0 0 0 0 0 0 0 0 0 0 0 0 0 0 0 127 0"/>
<feOffset/>
<feGaussianBlur stdDeviation="2"/>
<feColorMatrix type="matrix" values="0 0 0 0 0 0 0 0 0 0 0 0 0 0 0 0 0 0 0.1 0"/>
<feBlend mode="normal" in2="BackgroundImageFix" result="effect1_dropShadow"/>
<feBlend mode="normal" in="SourceGraphic" in2="effect1_dropShadow" result="shape"/>
</filter>
<filter id="filter2_d" x="1.8631" y="4.25946" width="32.8046" height="36.1701" filterUnits="userSpaceOnUse" color-interpolation-filters="sRGB">
<feFlood flood-opacity="0" result="BackgroundImageFix"/>
<feColorMatrix in="SourceAlpha" type="matrix" values="0 0 0 0 0 0 0 0 0 0 0 0 0 0 0 0 0 0 127 0"/>
<feOffset/>
<feGaussianBlur stdDeviation="2"/>
<feColorMatrix type="matrix" values="0 0 0 0 0 0 0 0 0 0 0 0 0 0 0 0 0 0 0.05 0"/>
<feBlend mode="normal" in2="BackgroundImageFix" result="effect1_dropShadow"/>
<feBlend mode="normal" in="SourceGraphic" in2="effect1_dropShadow" result="shape"/>
</filter>
</defs>
</svg>
