<svg width="126" height="40" viewBox="0 0 126 40" fill="none" xmlns="http://www.w3.org/2000/svg">
<path d="M16.3691 26.148L25.7519 18.5347L25.7392 7.35438L16.8026 14.0727L16.3691 26.148Z" fill="#357497"/>
<g filter="url(#filter0_d)">
<path d="M27.9829 14.06L15.9178 22.5708L28.4469 28.8176L27.9829 14.06Z" fill="#17CE54"/>
</g>
<g filter="url(#filter1_d)">
<path d="M19.0336 9.59805L19.4975 24.3556L6.96844 18.1088L19.0336 9.59805Z" fill="#CE1735"/>
</g>
<g filter="url(#filter2_d)">
<path d="M13.0226 32.86L13.6843 24.8094L9.20958 22.5784L23.5082 11.829L23.5285 29.7176L19.0539 27.4866L13.0226 32.86Z" fill="white"/>
</g>
<path d="M41.4467 19.54C41.3667 19.6867 41.2434 19.76 41.0767 19.76C40.9767 19.76 40.8634 19.7233 40.7367 19.65C40.6101 19.5767 40.4534 19.4967 40.2667 19.41C40.0867 19.3167 39.8701 19.2333 39.6167 19.16C39.3634 19.08 39.0634 19.04 38.7167 19.04C38.4167 19.04 38.1467 19.08 37.9067 19.16C37.6667 19.2333 37.4601 19.3367 37.2867 19.47C37.1201 19.6033 36.9901 19.76 36.8967 19.94C36.8101 20.1133 36.7667 20.3033 36.7667 20.51C36.7667 20.77 36.8401 20.9867 36.9867 21.16C37.1401 21.3333 37.3401 21.4833 37.5867 21.61C37.8334 21.7367 38.1134 21.85 38.4267 21.95C38.7401 22.0433 39.0601 22.1467 39.3867 22.26C39.7201 22.3667 40.0434 22.4867 40.3567 22.62C40.6701 22.7533 40.9501 22.92 41.1967 23.12C41.4434 23.32 41.6401 23.5667 41.7867 23.86C41.9401 24.1467 42.0167 24.4933 42.0167 24.9C42.0167 25.3667 41.9334 25.8 41.7667 26.2C41.6001 26.5933 41.3534 26.9367 41.0267 27.23C40.7001 27.5167 40.3001 27.7433 39.8267 27.91C39.3534 28.0767 38.8067 28.16 38.1867 28.16C37.4801 28.16 36.8401 28.0467 36.2667 27.82C35.6934 27.5867 35.2067 27.29 34.8067 26.93L35.2267 26.25C35.2801 26.1633 35.3434 26.0967 35.4167 26.05C35.4901 26.0033 35.5834 25.98 35.6967 25.98C35.8167 25.98 35.9434 26.0267 36.0767 26.12C36.2101 26.2133 36.3701 26.3167 36.5567 26.43C36.7501 26.5433 36.9834 26.6467 37.2567 26.74C37.5301 26.8333 37.8701 26.88 38.2767 26.88C38.6234 26.88 38.9267 26.8367 39.1867 26.75C39.4467 26.6567 39.6634 26.5333 39.8367 26.38C40.0101 26.2267 40.1367 26.05 40.2167 25.85C40.3034 25.65 40.3467 25.4367 40.3467 25.21C40.3467 24.93 40.2701 24.7 40.1167 24.52C39.9701 24.3333 39.7734 24.1767 39.5267 24.05C39.2801 23.9167 38.9967 23.8033 38.6767 23.71C38.3634 23.61 38.0401 23.5067 37.7067 23.4C37.3801 23.2933 37.0567 23.1733 36.7367 23.04C36.4234 22.9 36.1434 22.7267 35.8967 22.52C35.6501 22.3133 35.4501 22.06 35.2967 21.76C35.1501 21.4533 35.0767 21.0833 35.0767 20.65C35.0767 20.2633 35.1567 19.8933 35.3167 19.54C35.4767 19.18 35.7101 18.8667 36.0167 18.6C36.3234 18.3267 36.7001 18.11 37.1467 17.95C37.5934 17.79 38.1034 17.71 38.6767 17.71C39.3434 17.71 39.9401 17.8167 40.4667 18.03C41.0001 18.2367 41.4601 18.5233 41.8467 18.89L41.4467 19.54ZM45.9891 19.22C46.4224 18.76 46.9024 18.3933 47.4291 18.12C47.9557 17.8467 48.5624 17.71 49.2491 17.71C49.8024 17.71 50.2891 17.8033 50.7091 17.99C51.1357 18.17 51.4891 18.43 51.7691 18.77C52.0557 19.1033 52.2724 19.5067 52.4191 19.98C52.5657 20.4533 52.6391 20.9767 52.6391 21.55V28H50.8491V21.55C50.8491 20.7833 50.6724 20.19 50.3191 19.77C49.9724 19.3433 49.4424 19.13 48.7291 19.13C48.2024 19.13 47.7091 19.2567 47.2491 19.51C46.7957 19.7633 46.3757 20.1067 45.9891 20.54V28H44.1991V13.27H45.9891V19.22ZM57.2314 17.87V28H55.4514V17.87H57.2314ZM57.6114 14.69C57.6114 14.8633 57.5747 15.0267 57.5014 15.18C57.4347 15.3267 57.3414 15.46 57.2214 15.58C57.1081 15.6933 56.9714 15.7833 56.8114 15.85C56.6581 15.9167 56.4947 15.95 56.3214 15.95C56.1481 15.95 55.9847 15.9167 55.8314 15.85C55.6847 15.7833 55.5547 15.6933 55.4414 15.58C55.3281 15.46 55.2381 15.3267 55.1714 15.18C55.1047 15.0267 55.0714 14.8633 55.0714 14.69C55.0714 14.5167 55.1047 14.3533 55.1714 14.2C55.2381 14.04 55.3281 13.9033 55.4414 13.79C55.5547 13.67 55.6847 13.5767 55.8314 13.51C55.9847 13.4433 56.1481 13.41 56.3214 13.41C56.4947 13.41 56.6581 13.4433 56.8114 13.51C56.9714 13.5767 57.1081 13.67 57.2214 13.79C57.3414 13.9033 57.4347 14.04 57.5014 14.2C57.5747 14.3533 57.6114 14.5167 57.6114 14.69ZM69.0761 19.36V25.44C69.0761 25.8667 69.1794 26.1833 69.3861 26.39C69.5928 26.5967 69.8561 26.7 70.1761 26.7C70.3694 26.7 70.5328 26.6767 70.6661 26.63C70.8061 26.5767 70.9261 26.52 71.0261 26.46C71.1261 26.4 71.2094 26.3467 71.2761 26.3C71.3428 26.2467 71.4028 26.22 71.4561 26.22C71.5161 26.22 71.5628 26.2333 71.5961 26.26C71.6361 26.2867 71.6761 26.33 71.7161 26.39L72.2361 27.24C71.9294 27.5267 71.5594 27.7533 71.1261 27.92C70.6928 28.08 70.2428 28.16 69.7761 28.16C68.9828 28.16 68.3694 27.9367 67.9361 27.49C67.5094 27.0433 67.2961 26.4 67.2961 25.56V19.36H62.6061V28H60.8161V19.39L59.6961 19.26C59.5561 19.2267 59.4394 19.1767 59.3461 19.11C59.2594 19.0367 59.2161 18.9333 59.2161 18.8V18.07H60.8161V17.09C60.8161 16.51 60.8961 15.9967 61.0561 15.55C61.2228 15.0967 61.4561 14.7167 61.7561 14.41C62.0628 14.0967 62.4294 13.86 62.8561 13.7C63.2828 13.54 63.7628 13.46 64.2961 13.46C64.7494 13.46 65.1661 13.5267 65.5461 13.66L65.5061 14.55C65.4928 14.71 65.4028 14.7967 65.2361 14.81C65.0761 14.8233 64.8594 14.83 64.5861 14.83C64.2794 14.83 63.9994 14.87 63.7461 14.95C63.4994 15.03 63.2861 15.16 63.1061 15.34C62.9261 15.52 62.7861 15.7567 62.6861 16.05C62.5928 16.3433 62.5461 16.7067 62.5461 17.14V18.07H67.3561L67.7561 14.92C67.7828 14.82 67.8294 14.74 67.8961 14.68C67.9694 14.6133 68.0628 14.58 68.1761 14.58H69.0761V18.07H71.9961V19.36H69.0761ZM77.3775 23.05C77.7375 23.05 78.0542 23 78.3275 22.9C78.6008 22.8 78.8308 22.66 79.0175 22.48C79.2042 22.3 79.3442 22.0867 79.4375 21.84C79.5308 21.5867 79.5775 21.31 79.5775 21.01C79.5775 20.39 79.3875 19.8967 79.0075 19.53C78.6342 19.1633 78.0908 18.98 77.3775 18.98C76.6575 18.98 76.1075 19.1633 75.7275 19.53C75.3542 19.8967 75.1675 20.39 75.1675 21.01C75.1675 21.31 75.2142 21.5867 75.3075 21.84C75.4075 22.0867 75.5508 22.3 75.7375 22.48C75.9242 22.66 76.1542 22.8 76.4275 22.9C76.7008 23 77.0175 23.05 77.3775 23.05ZM80.5875 28.55C80.5875 28.3033 80.5175 28.1033 80.3775 27.95C80.2375 27.7967 80.0475 27.6767 79.8075 27.59C79.5742 27.5033 79.3008 27.4433 78.9875 27.41C78.6742 27.37 78.3408 27.34 77.9875 27.32C77.6408 27.3 77.2875 27.28 76.9275 27.26C76.5675 27.24 76.2208 27.2067 75.8875 27.16C75.5142 27.3333 75.2075 27.5533 74.9675 27.82C74.7342 28.08 74.6175 28.3867 74.6175 28.74C74.6175 28.9667 74.6742 29.1767 74.7875 29.37C74.9075 29.57 75.0875 29.74 75.3275 29.88C75.5675 30.0267 75.8675 30.14 76.2275 30.22C76.5942 30.3067 77.0242 30.35 77.5175 30.35C77.9975 30.35 78.4275 30.3067 78.8075 30.22C79.1875 30.1333 79.5075 30.01 79.7675 29.85C80.0342 29.69 80.2375 29.5 80.3775 29.28C80.5175 29.06 80.5875 28.8167 80.5875 28.55ZM82.3975 18.27V18.93C82.3975 19.15 82.2575 19.29 81.9775 19.35L80.8275 19.5C81.0542 19.94 81.1675 20.4267 81.1675 20.96C81.1675 21.4533 81.0708 21.9033 80.8775 22.31C80.6908 22.71 80.4308 23.0533 80.0975 23.34C79.7642 23.6267 79.3642 23.8467 78.8975 24C78.4308 24.1533 77.9242 24.23 77.3775 24.23C76.9042 24.23 76.4575 24.1733 76.0375 24.06C75.8242 24.1933 75.6608 24.3367 75.5475 24.49C75.4342 24.6367 75.3775 24.7867 75.3775 24.94C75.3775 25.18 75.4742 25.3633 75.6675 25.49C75.8675 25.61 76.1275 25.6967 76.4475 25.75C76.7675 25.8033 77.1308 25.8367 77.5375 25.85C77.9508 25.8633 78.3708 25.8867 78.7975 25.92C79.2308 25.9467 79.6508 25.9967 80.0575 26.07C80.4708 26.1433 80.8375 26.2633 81.1575 26.43C81.4775 26.5967 81.7342 26.8267 81.9275 27.12C82.1275 27.4133 82.2275 27.7933 82.2275 28.26C82.2275 28.6933 82.1175 29.1133 81.8975 29.52C81.6842 29.9267 81.3742 30.2867 80.9675 30.6C80.5608 30.92 80.0608 31.1733 79.4675 31.36C78.8808 31.5533 78.2175 31.65 77.4775 31.65C76.7375 31.65 76.0908 31.5767 75.5375 31.43C74.9842 31.2833 74.5242 31.0867 74.1575 30.84C73.7908 30.5933 73.5142 30.3067 73.3275 29.98C73.1475 29.66 73.0575 29.3233 73.0575 28.97C73.0575 28.47 73.2142 28.0467 73.5275 27.7C73.8408 27.3533 74.2708 27.0767 74.8175 26.87C74.5175 26.7367 74.2775 26.56 74.0975 26.34C73.9242 26.1133 73.8375 25.81 73.8375 25.43C73.8375 25.2833 73.8642 25.1333 73.9175 24.98C73.9708 24.82 74.0508 24.6633 74.1575 24.51C74.2708 24.35 74.4075 24.2 74.5675 24.06C74.7275 23.92 74.9142 23.7967 75.1275 23.69C74.6275 23.41 74.2375 23.04 73.9575 22.58C73.6775 22.1133 73.5375 21.5733 73.5375 20.96C73.5375 20.4667 73.6308 20.02 73.8175 19.62C74.0108 19.2133 74.2775 18.87 74.6175 18.59C74.9575 18.3033 75.3608 18.0833 75.8275 17.93C76.3008 17.7767 76.8175 17.7 77.3775 17.7C77.8175 17.7 78.2275 17.75 78.6075 17.85C78.9875 17.9433 79.3342 18.0833 79.6475 18.27H82.3975ZM90.8619 21.83C90.8619 21.4167 90.8019 21.04 90.6819 20.7C90.5685 20.3533 90.3985 20.0567 90.1719 19.81C89.9519 19.5567 89.6819 19.3633 89.3619 19.23C89.0419 19.09 88.6785 19.02 88.2719 19.02C87.4185 19.02 86.7419 19.27 86.2419 19.77C85.7485 20.2633 85.4419 20.95 85.3219 21.83H90.8619ZM92.3019 26.58C92.0819 26.8467 91.8185 27.08 91.5119 27.28C91.2052 27.4733 90.8752 27.6333 90.5219 27.76C90.1752 27.8867 89.8152 27.98 89.4419 28.04C89.0685 28.1067 88.6985 28.14 88.3319 28.14C87.6319 28.14 86.9852 28.0233 86.3919 27.79C85.8052 27.55 85.2952 27.2033 84.8619 26.75C84.4352 26.29 84.1019 25.7233 83.8619 25.05C83.6219 24.3767 83.5019 23.6033 83.5019 22.73C83.5019 22.0233 83.6085 21.3633 83.8219 20.75C84.0419 20.1367 84.3552 19.6067 84.7619 19.16C85.1685 18.7067 85.6652 18.3533 86.2519 18.1C86.8385 17.84 87.4985 17.71 88.2319 17.71C88.8385 17.71 89.3985 17.8133 89.9119 18.02C90.4319 18.22 90.8785 18.5133 91.2519 18.9C91.6319 19.28 91.9285 19.7533 92.1419 20.32C92.3552 20.88 92.4619 21.52 92.4619 22.24C92.4619 22.52 92.4319 22.7067 92.3719 22.8C92.3119 22.8933 92.1985 22.94 92.0319 22.94H85.2619C85.2819 23.58 85.3685 24.1367 85.5219 24.61C85.6819 25.0833 85.9019 25.48 86.1819 25.8C86.4619 26.1133 86.7952 26.35 87.1819 26.51C87.5685 26.6633 88.0019 26.74 88.4819 26.74C88.9285 26.74 89.3119 26.69 89.6319 26.59C89.9585 26.4833 90.2385 26.37 90.4719 26.25C90.7052 26.13 90.8985 26.02 91.0519 25.92C91.2119 25.8133 91.3485 25.76 91.4619 25.76C91.6085 25.76 91.7219 25.8167 91.8019 25.93L92.3019 26.58ZM96.5283 17.87V28H94.7483V17.87H96.5283ZM96.9083 14.69C96.9083 14.8633 96.8716 15.0267 96.7983 15.18C96.7316 15.3267 96.6383 15.46 96.5183 15.58C96.4049 15.6933 96.2683 15.7833 96.1083 15.85C95.9549 15.9167 95.7916 15.95 95.6183 15.95C95.4449 15.95 95.2816 15.9167 95.1283 15.85C94.9816 15.7833 94.8516 15.6933 94.7383 15.58C94.6249 15.46 94.5349 15.3267 94.4683 15.18C94.4016 15.0267 94.3683 14.8633 94.3683 14.69C94.3683 14.5167 94.4016 14.3533 94.4683 14.2C94.5349 14.04 94.6249 13.9033 94.7383 13.79C94.8516 13.67 94.9816 13.5767 95.1283 13.51C95.2816 13.4433 95.4449 13.41 95.6183 13.41C95.7916 13.41 95.9549 13.4433 96.1083 13.51C96.2683 13.5767 96.4049 13.67 96.5183 13.79C96.6383 13.9033 96.7316 14.04 96.7983 14.2C96.8716 14.3533 96.9083 14.5167 96.9083 14.69ZM105.353 19.54C105.273 19.6867 105.15 19.76 104.983 19.76C104.883 19.76 104.77 19.7233 104.643 19.65C104.516 19.5767 104.36 19.4967 104.173 19.41C103.993 19.3167 103.776 19.2333 103.523 19.16C103.27 19.08 102.97 19.04 102.623 19.04C102.323 19.04 102.053 19.08 101.813 19.16C101.573 19.2333 101.366 19.3367 101.193 19.47C101.026 19.6033 100.896 19.76 100.803 19.94C100.716 20.1133 100.673 20.3033 100.673 20.51C100.673 20.77 100.746 20.9867 100.893 21.16C101.046 21.3333 101.246 21.4833 101.493 21.61C101.74 21.7367 102.02 21.85 102.333 21.95C102.646 22.0433 102.966 22.1467 103.293 22.26C103.626 22.3667 103.95 22.4867 104.263 22.62C104.576 22.7533 104.856 22.92 105.103 23.12C105.35 23.32 105.546 23.5667 105.693 23.86C105.846 24.1467 105.923 24.4933 105.923 24.9C105.923 25.3667 105.84 25.8 105.673 26.2C105.506 26.5933 105.26 26.9367 104.933 27.23C104.606 27.5167 104.206 27.7433 103.733 27.91C103.26 28.0767 102.713 28.16 102.093 28.16C101.386 28.16 100.746 28.0467 100.173 27.82C99.5996 27.5867 99.113 27.29 98.713 26.93L99.133 26.25C99.1863 26.1633 99.2496 26.0967 99.323 26.05C99.3963 26.0033 99.4896 25.98 99.603 25.98C99.723 25.98 99.8496 26.0267 99.983 26.12C100.116 26.2133 100.276 26.3167 100.463 26.43C100.656 26.5433 100.89 26.6467 101.163 26.74C101.436 26.8333 101.776 26.88 102.183 26.88C102.53 26.88 102.833 26.8367 103.093 26.75C103.353 26.6567 103.57 26.5333 103.743 26.38C103.916 26.2267 104.043 26.05 104.123 25.85C104.21 25.65 104.253 25.4367 104.253 25.21C104.253 24.93 104.176 24.7 104.023 24.52C103.876 24.3333 103.68 24.1767 103.433 24.05C103.186 23.9167 102.903 23.8033 102.583 23.71C102.27 23.61 101.946 23.5067 101.613 23.4C101.286 23.2933 100.963 23.1733 100.643 23.04C100.33 22.9 100.05 22.7267 99.803 22.52C99.5563 22.3133 99.3563 22.06 99.203 21.76C99.0563 21.4533 98.983 21.0833 98.983 20.65C98.983 20.2633 99.063 19.8933 99.223 19.54C99.383 19.18 99.6163 18.8667 99.923 18.6C100.23 18.3267 100.606 18.11 101.053 17.95C101.5 17.79 102.01 17.71 102.583 17.71C103.25 17.71 103.846 17.8167 104.373 18.03C104.906 18.2367 105.366 18.5233 105.753 18.89L105.353 19.54ZM111.215 28.16C110.415 28.16 109.799 27.9367 109.365 27.49C108.939 27.0433 108.725 26.4 108.725 25.56V19.36H107.505C107.399 19.36 107.309 19.33 107.235 19.27C107.162 19.2033 107.125 19.1033 107.125 18.97V18.26L108.785 18.05L109.195 14.92C109.215 14.82 109.259 14.74 109.325 14.68C109.399 14.6133 109.492 14.58 109.605 14.58H110.505V18.07H113.435V19.36H110.505V25.44C110.505 25.8667 110.609 26.1833 110.815 26.39C111.022 26.5967 111.289 26.7 111.615 26.7C111.802 26.7 111.962 26.6767 112.095 26.63C112.235 26.5767 112.355 26.52 112.455 26.46C112.555 26.4 112.639 26.3467 112.705 26.3C112.779 26.2467 112.842 26.22 112.895 26.22C112.989 26.22 113.072 26.2767 113.145 26.39L113.665 27.24C113.359 27.5267 112.989 27.7533 112.555 27.92C112.122 28.08 111.675 28.16 111.215 28.16Z" fill="white"/>
<defs>
<filter id="filter0_d" x="11.9178" y="10.06" width="20.5291" height="22.7575" filterUnits="userSpaceOnUse" color-interpolation-filters="sRGB">
<feFlood flood-opacity="0" result="BackgroundImageFix"/>
<feColorMatrix in="SourceAlpha" type="matrix" values="0 0 0 0 0 0 0 0 0 0 0 0 0 0 0 0 0 0 127 0"/>
<feOffset/>
<feGaussianBlur stdDeviation="2"/>
<feColorMatrix type="matrix" values="0 0 0 0 0 0 0 0 0 0 0 0 0 0 0 0 0 0 0.1 0"/>
<feBlend mode="normal" in2="BackgroundImageFix" result="effect1_dropShadow"/>
<feBlend mode="normal" in="SourceGraphic" in2="effect1_dropShadow" result="shape"/>
</filter>
<filter id="filter1_d" x="2.96844" y="5.59805" width="20.5291" height="22.7575" filterUnits="userSpaceOnUse" color-interpolation-filters="sRGB">
<feFlood flood-opacity="0" result="BackgroundImageFix"/>
<feColorMatrix in="SourceAlpha" type="matrix" values="0 0 0 0 0 0 0 0 0 0 0 0 0 0 0 0 0 0 127 0"/>
<feOffset/>
<feGaussianBlur stdDeviation="2"/>
<feColorMatrix type="matrix" values="0 0 0 0 0 0 0 0 0 0 0 0 0 0 0 0 0 0 0.1 0"/>
<feBlend mode="normal" in2="BackgroundImageFix" result="effect1_dropShadow"/>
<feBlend mode="normal" in="SourceGraphic" in2="effect1_dropShadow" result="shape"/>
</filter>
<filter id="filter2_d" x="5.20958" y="7.82904" width="22.3189" height="29.031" filterUnits="userSpaceOnUse" color-interpolation-filters="sRGB">
<feFlood flood-opacity="0" result="BackgroundImageFix"/>
<feColorMatrix in="SourceAlpha" type="matrix" values="0 0 0 0 0 0 0 0 0 0 0 0 0 0 0 0 0 0 127 0"/>
<feOffset/>
<feGaussianBlur stdDeviation="2"/>
<feColorMatrix type="matrix" values="0 0 0 0 0 0 0 0 0 0 0 0 0 0 0 0 0 0 0.1 0"/>
<feBlend mode="normal" in2="BackgroundImageFix" result="effect1_dropShadow"/>
<feBlend mode="normal" in="SourceGraphic" in2="effect1_dropShadow" result="shape"/>
</filter>
</defs>
</svg>
