<svg width="400" height="400" viewBox="0 0 400 400" fill="none" xmlns="http://www.w3.org/2000/svg">
<rect width="400" height="400" fill="black"/>
<mask id="mask0_1097_155" style="mask-type:alpha" maskUnits="userSpaceOnUse" x="64" y="122" width="272" height="156">
<rect x="64.5" y="122.673" width="271" height="154.654" fill="#C4C4C4"/>
</mask>
<g mask="url(#mask0_1097_155)">
<path d="M103.569 177.778L102.349 155.989C102.349 150.993 103.453 147.216 105.661 144.659C107.985 142.103 112.226 140.592 118.385 140.127L118.211 124.091C105.661 124.556 96.771 127.055 91.5418 131.586C86.4288 136.002 83.8724 143.672 83.8724 154.595L85.0925 176.732C85.0925 181.264 83.5237 184.982 80.3862 187.887C77.3649 190.676 72.5425 192.826 65.9188 194.337V209.153C78.7013 212.639 85.0925 218.856 85.0925 227.803L83.8724 248.894C83.8724 259.353 86.4288 266.848 91.5418 271.38C96.771 276.028 105.602 278.584 118.036 279.049V263.013C111.994 262.665 107.868 261.154 105.661 258.481C103.453 255.692 102.349 251.799 102.349 246.803L103.569 226.409C103.569 218.972 102.291 213.51 99.7342 210.024C97.2939 206.422 92.239 203.633 84.5696 201.657C92.3552 199.566 97.4682 196.893 99.9085 193.639C102.349 190.386 103.569 185.098 103.569 177.778Z" fill="url(#paint0_linear_1097_155)"/>
<path d="M298.622 225.363L299.842 247.151C299.842 252.148 298.738 255.925 296.53 258.481C294.206 261.038 289.965 262.548 283.806 263.013L283.98 279.049C296.53 278.584 305.42 276.086 310.649 271.554C315.762 267.138 318.318 259.469 318.318 248.546L317.098 226.409C317.098 221.877 318.667 218.158 321.805 215.253C324.826 212.464 329.648 210.315 336.272 208.804V193.988C323.49 190.502 317.098 184.285 317.098 175.337L318.319 154.246C318.319 143.788 315.762 136.293 310.649 131.761C305.42 127.113 296.588 124.556 284.155 124.091V140.127C290.197 140.476 294.322 141.987 296.53 144.659C298.738 147.448 299.842 151.341 299.842 156.338L298.622 176.732C298.622 184.169 299.9 189.63 302.457 193.116C304.897 196.719 309.952 199.508 317.621 201.483C309.836 203.575 304.723 206.248 302.282 209.501C299.842 212.755 298.622 218.042 298.622 225.363Z" fill="url(#paint1_linear_1097_155)"/>
<g clip-path="url(#clip0_1097_155)">
<path fill-rule="evenodd" clip-rule="evenodd" d="M160.591 172.751L136.745 196.597C127.441 205.901 127.441 220.986 136.745 230.29L165.453 258.998C174.757 268.302 189.842 268.302 199.146 258.998L258.882 199.262L196.481 136.861L171.767 161.575L152.949 142.757C149.863 139.671 144.859 139.671 141.773 142.757C138.687 145.843 138.687 150.847 141.773 153.933L160.591 172.751ZM171.822 183.982L147.976 207.828C144.875 210.93 144.875 215.958 147.976 219.059L176.684 247.767C179.785 250.869 184.814 250.869 187.915 247.767L236.42 199.262L196.481 159.323L182.998 172.806L195.518 185.327L184.342 196.502L171.822 183.982Z" fill="url(#paint2_radial_1097_155)"/>
<g opacity="0.5">
<path d="M271.652 250.085C271.652 258.861 264.664 265.976 256.044 265.976C247.425 265.976 240.437 258.861 240.437 250.085C240.437 238.167 256.044 216.316 256.044 216.316C256.044 216.316 271.652 238.167 271.652 250.085Z" fill="url(#paint3_radial_1097_155)"/>
<path d="M222.203 213.479L187.915 247.767C184.814 250.868 179.785 250.868 176.684 247.767L147.976 219.059C146.434 217.518 145.659 215.5 145.65 213.479L222.203 213.479Z" fill="url(#paint4_radial_1097_155)"/>
</g>
</g>
</g>
<defs>
<linearGradient id="paint0_linear_1097_155" x1="201.095" y1="124.091" x2="201.095" y2="279.049" gradientUnits="userSpaceOnUse">
<stop stop-color="#FF506D"/>
<stop offset="1" stop-color="#FFCC95"/>
</linearGradient>
<linearGradient id="paint1_linear_1097_155" x1="201.095" y1="124.091" x2="201.095" y2="279.049" gradientUnits="userSpaceOnUse">
<stop stop-color="#FF506D"/>
<stop offset="1" stop-color="#FFCC95"/>
</linearGradient>
<radialGradient id="paint2_radial_1097_155" cx="0" cy="0" r="1" gradientUnits="userSpaceOnUse" gradientTransform="translate(146.642 150.262) rotate(44.5582) scale(126.772 124.378)">
<stop stop-color="#19F9D8"/>
<stop offset="0.479167" stop-color="#43D5EC"/>
<stop offset="1" stop-color="#6CB1FF"/>
</radialGradient>
<radialGradient id="paint3_radial_1097_155" cx="0" cy="0" r="1" gradientUnits="userSpaceOnUse" gradientTransform="translate(162.119 218.928) rotate(22.3066) scale(95.2821 65.6625)">
<stop stop-color="#19F9D8"/>
<stop offset="0.479167" stop-color="#43D5EC"/>
<stop offset="1" stop-color="#6CB1FF"/>
</radialGradient>
<radialGradient id="paint4_radial_1097_155" cx="0" cy="0" r="1" gradientUnits="userSpaceOnUse" gradientTransform="translate(162.119 218.928) rotate(22.3066) scale(95.2821 65.6625)">
<stop stop-color="#19F9D8"/>
<stop offset="0.479167" stop-color="#43D5EC"/>
<stop offset="1" stop-color="#6CB1FF"/>
</radialGradient>
<clipPath id="clip0_1097_155">
<rect width="141.885" height="129.115" fill="white" transform="translate(129.767 136.861)"/>
</clipPath>
</defs>
</svg>
