<svg width="138" height="196" viewBox="0 0 138 196" fill="none" xmlns="http://www.w3.org/2000/svg">
<path d="M44.5178 0C50.6397 8.08009 58.7989 19.14 65.1016 30.2C74.0156 45.2667 79.4844 60.3333 79.6484 75.4C79.6035 79.5284 79.1602 83.6569 78.717 87.7853C77.5426 98.7235 76.3683 109.662 82.6016 120.6C87.5818 129.018 96.9491 137.435 106.316 145.853C113.715 152.502 121.115 159.151 126.352 165.8C134.902 176.86 137.176 187.92 137.781 196H0V0H44.5178Z" fill="#2B7DDA"/>
<path d="M32.3348 0L33.7664 1.86666C34.5811 2.97009 35.5444 4.25083 36.6197 5.68039C42.2359 13.147 50.9058 24.6735 57.3914 36.2C65.4141 49.9333 70.3359 63.6667 70.4836 77.4C70.4431 81.1631 70.0442 84.9262 69.6453 88.6893C68.5884 98.6595 67.5314 108.63 73.1414 118.6C77.6236 126.273 86.0542 133.946 94.4847 141.618C101.144 147.679 107.803 153.739 112.516 159.8C123 173.533 123 187.267 123 194.133V196H0V0H32.3348Z" fill="#6CB1FF"/>
<path d="M28.0156 7.03333L23 0L0 3.93402e-06V196H112.737C112.115 188.557 110.027 178.679 103.016 168.8C98.5267 162.592 92.1847 156.385 85.8426 150.177C77.8135 142.318 69.7844 134.459 65.5156 126.6C60.1728 116.388 61.1794 106.176 62.186 95.9633C62.5659 92.1089 62.9458 88.2544 62.9844 84.4C62.8438 70.3333 58.1562 56.2667 50.5156 42.2C44.3388 30.3937 36.0817 18.5874 30.733 10.9396C29.7089 9.47533 28.7915 8.16353 28.0156 7.03333Z" fill="#9ECCFF"/>
</svg>
