<svg width="611" height="145" viewBox="0 0 611 145" fill="none" xmlns="http://www.w3.org/2000/svg">
<path d="M259.033 70.7966C251.489 69.7737 246.023 69.2622 242.635 69.2622C239.246 69.2622 236.881 69.6778 235.538 70.5089C234.26 71.276 233.62 72.5227 233.62 74.2488C233.62 75.9749 234.324 77.1896 235.73 77.8928C237.2 78.596 240.589 79.4271 245.895 80.3861C251.265 81.2811 255.069 82.7195 257.307 84.7014C259.544 86.6832 260.663 90.1994 260.663 95.2498C260.663 100.3 259.033 104.008 255.772 106.374C252.576 108.739 247.877 109.922 241.676 109.922C237.776 109.922 232.853 109.378 226.908 108.292L223.935 107.812L224.319 99.0856C231.99 100.109 237.52 100.62 240.908 100.62C244.297 100.62 246.694 100.204 248.101 99.3733C249.571 98.5422 250.306 97.1677 250.306 95.2498C250.306 93.3319 249.603 92.0214 248.196 91.3181C246.854 90.551 243.562 89.7518 238.319 88.9208C233.141 88.0257 229.337 86.6512 226.908 84.7973C224.478 82.9433 223.264 79.555 223.264 74.6324C223.264 69.7098 224.926 66.0338 228.25 63.6044C231.639 61.1751 235.954 59.9604 241.196 59.9604C245.288 59.9604 250.306 60.4719 256.252 61.4947L259.224 62.0701L259.033 70.7966ZM281.16 108.867H270.708V40.9732H281.16V63.4126C285.891 61.0472 290.27 59.8645 294.298 59.8645C300.691 59.8645 305.038 61.6865 307.34 65.3305C309.705 68.9106 310.888 74.8561 310.888 83.167V108.867H300.435V83.4547C300.435 78.2764 299.892 74.6004 298.805 72.4268C297.718 70.2532 295.417 69.1663 291.901 69.1663C288.832 69.1663 285.763 69.6778 282.695 70.7007L281.16 71.276V108.867ZM323.057 108.867V60.9194H333.509V108.867H323.057ZM323.057 52.7683V41.7403H333.509V52.7683H323.057ZM358.75 69.8376V108.867H348.393V69.8376H342.831V60.9194H348.393V57.8507C348.393 51.0102 349.384 46.3113 351.366 43.7541C353.348 41.1969 356.864 39.9183 361.915 39.9183L372.271 40.8773L372.175 49.4119C369.043 49.2841 366.422 49.2202 364.312 49.2202C362.266 49.2202 360.828 49.8595 359.997 51.1381C359.166 52.3527 358.75 54.6222 358.75 57.9466V60.9194H371.408V69.8376H358.75ZM405.135 69.8376H391.901V90.9345C391.901 94.8343 392.189 97.4235 392.764 98.7021C393.34 99.9807 394.81 100.62 397.176 100.62L405.039 100.332L405.518 108.675C401.235 109.506 397.975 109.922 395.737 109.922C390.303 109.922 386.563 108.675 384.517 106.182C382.536 103.689 381.545 98.9897 381.545 92.0853V69.8376H375.407V60.9194H381.545V47.0146H391.901V60.9194H405.135V69.8376ZM455.614 115.388C455.614 125.872 448.038 131.115 432.887 131.115C425.599 131.115 420.197 130.124 416.681 128.142C413.164 126.16 411.406 122.548 411.406 117.306C411.406 114.94 411.982 112.895 413.132 111.168C414.283 109.506 416.137 107.684 418.694 105.702C416.585 104.296 415.53 101.962 415.53 98.7021C415.53 97.4235 416.393 95.3457 418.119 92.4689L418.982 91.0304C414.379 88.2814 412.078 83.4867 412.078 76.6462C412.078 70.8925 413.804 66.6731 417.256 63.988C420.708 61.3029 425.375 59.9604 431.257 59.9604C434.069 59.9604 436.85 60.2801 439.599 60.9194L441.038 61.207L455.902 60.8235V69.2622L447.942 68.7828C449.668 71.0203 450.531 73.6415 450.531 76.6462C450.531 82.9113 448.933 87.2586 445.737 89.6879C442.604 92.0533 437.682 93.236 430.969 93.236C429.307 93.236 427.9 93.1082 426.749 92.8525C425.854 95.0261 425.407 96.7202 425.407 97.9349C425.407 99.0856 425.982 99.8848 427.133 100.332C428.348 100.78 431.225 101.036 435.764 101.099C443.371 101.163 448.582 102.186 451.395 104.168C454.207 106.15 455.614 109.89 455.614 115.388ZM421.667 116.347C421.667 118.584 422.562 120.183 424.352 121.142C426.142 122.1 429.211 122.58 433.558 122.58C441.294 122.58 445.161 120.374 445.161 115.963C445.161 113.47 444.458 111.872 443.052 111.168C441.709 110.529 438.992 110.178 434.901 110.114L425.503 109.538C424.096 110.689 423.105 111.744 422.53 112.703C421.955 113.726 421.667 114.94 421.667 116.347ZM422.434 76.6462C422.434 79.587 423.137 81.7606 424.544 83.167C425.95 84.5096 428.22 85.1808 431.352 85.1808C434.485 85.1808 436.723 84.5096 438.065 83.167C439.472 81.7606 440.175 79.587 440.175 76.6462C440.175 73.7054 439.472 71.5637 438.065 70.2212C436.659 68.8147 434.389 68.1115 431.257 68.1115C425.375 68.1115 422.434 70.9564 422.434 76.6462ZM498.229 100.236L500.914 99.9487L501.106 107.716C493.818 109.187 487.361 109.922 481.735 109.922C474.639 109.922 469.524 107.972 466.392 104.072C463.323 100.172 461.789 93.9393 461.789 85.3726C461.789 68.3672 468.725 59.8645 482.598 59.8645C496.023 59.8645 502.736 67.1845 502.736 81.8245L502.065 89.3043H472.337C472.401 93.268 473.264 96.1768 474.926 98.0308C476.589 99.8848 479.689 100.812 484.228 100.812C488.767 100.812 493.434 100.62 498.229 100.236ZM492.475 81.2491C492.475 76.5183 491.708 73.2259 490.174 71.3719C488.703 69.454 486.178 68.4951 482.598 68.4951C479.018 68.4951 476.397 69.486 474.735 71.4678C473.136 73.4497 472.305 76.7101 472.241 81.2491H492.475ZM512.787 108.867V60.9194H523.24V108.867H512.787ZM512.787 52.7683V41.7403H523.24V52.7683H512.787ZM569.194 70.7966C561.65 69.7737 556.184 69.2622 552.795 69.2622C549.407 69.2622 547.042 69.6778 545.699 70.5089C544.421 71.276 543.781 72.5227 543.781 74.2488C543.781 75.9749 544.485 77.1896 545.891 77.8928C547.361 78.596 550.75 79.4271 556.056 80.3861C561.426 81.2811 565.23 82.7195 567.467 84.7014C569.705 86.6832 570.824 90.1994 570.824 95.2498C570.824 100.3 569.194 104.008 565.933 106.374C562.737 108.739 558.038 109.922 551.836 109.922C547.937 109.922 543.014 109.378 537.069 108.292L534.096 107.812L534.479 99.0856C542.151 100.109 547.681 100.62 551.069 100.62C554.458 100.62 556.855 100.204 558.261 99.3733C559.732 98.5422 560.467 97.1677 560.467 95.2498C560.467 93.3319 559.764 92.0214 558.357 91.3181C557.015 90.551 553.722 89.7518 548.48 88.9208C543.302 88.0257 539.498 86.6512 537.069 84.7973C534.639 82.9433 533.425 79.555 533.425 74.6324C533.425 69.7098 535.087 66.0338 538.411 63.6044C541.799 61.1751 546.115 59.9604 551.357 59.9604C555.449 59.9604 560.467 60.4719 566.413 61.4947L569.385 62.0701L569.194 70.7966ZM606.665 69.8376H593.431V90.9345C593.431 94.8343 593.719 97.4235 594.294 98.7021C594.869 99.9807 596.34 100.62 598.705 100.62L606.569 100.332L607.048 108.675C602.765 109.506 599.504 109.922 597.267 109.922C591.833 109.922 588.093 108.675 586.047 106.182C584.065 103.689 583.074 98.9897 583.074 92.0853V69.8376H576.937V60.9194H583.074V47.0146H593.431V60.9194H606.665V69.8376Z" fill="url(#paint0_linear_438_650)"/>
<path d="M28.5357 56.8379L27.6757 41.4816C27.6757 37.9599 28.4538 35.2981 30.0099 33.4963C31.6479 31.6945 34.6372 30.6298 38.9779 30.3022L38.8551 19C30.0099 19.3276 23.7445 21.0885 20.059 24.2826C16.4554 27.3948 14.6536 32.8002 14.6536 40.4988L15.5135 56.1008C15.5135 59.2949 14.4079 61.9157 12.1966 63.9632C10.0672 65.9288 6.66831 67.444 2 68.5087V78.951C11.009 81.408 15.5135 85.7896 15.5135 92.0959L14.6536 106.961C14.6536 114.332 16.4554 119.614 20.059 122.809C23.7445 126.085 29.9689 127.886 38.7322 128.214V116.912C34.4734 116.666 31.566 115.601 30.0099 113.718C28.4538 111.752 27.6757 109.008 27.6757 105.487L28.5357 91.1131C28.5357 85.8715 27.6348 82.0222 25.833 79.5652C24.1131 77.0263 20.5504 75.0607 15.145 73.6684C20.6323 72.1942 24.2359 70.3105 25.9558 68.0173C27.6757 65.7241 28.5357 61.9976 28.5357 56.8379Z" fill="url(#paint1_linear_438_650)"/>
<path d="M166.008 90.376L166.868 105.732C166.868 109.254 166.09 111.916 164.534 113.718C162.896 115.519 159.907 116.584 155.566 116.912L155.689 128.214C164.534 127.886 170.8 126.125 174.485 122.931C178.089 119.819 179.891 114.414 179.891 106.715L179.031 91.1131C179.031 87.919 180.136 85.2982 182.348 83.2507C184.477 81.2851 187.876 79.77 192.544 78.7053V68.263C183.535 65.806 179.031 61.4243 179.031 55.118L179.891 40.2531C179.891 32.8821 178.089 27.5995 174.485 24.4054C170.8 21.1294 164.575 19.3276 155.812 19V30.3022C160.071 30.5479 162.978 31.6126 164.534 33.4963C166.09 35.4619 166.868 38.2056 166.868 41.7273L166.008 56.1008C166.008 61.3424 166.909 65.1917 168.711 67.6487C170.431 70.1876 173.994 72.1532 179.399 73.5455C173.912 75.0197 170.308 76.9035 168.588 79.1967C166.868 81.4899 166.008 85.2163 166.008 90.376Z" fill="url(#paint2_linear_438_650)"/>
<g clip-path="url(#clip0_438_650)">
<path fill-rule="evenodd" clip-rule="evenodd" d="M68.7249 53.2952L51.9181 70.102C45.3606 76.6595 45.3606 87.2912 51.9181 93.8487L72.1513 114.082C78.7088 120.639 89.3406 120.639 95.898 114.082L138 71.9799L94.0201 28L76.6015 45.4186L63.3383 32.1555C61.1633 29.9804 57.6368 29.9804 55.4617 32.1555C53.2867 34.3305 53.2867 37.857 55.4617 40.032L68.7249 53.2952ZM76.6405 61.2108L59.8337 78.0175C57.6479 80.2034 57.6479 83.7473 59.8337 85.9331L80.0669 106.166C82.2527 108.352 85.7966 108.352 87.9825 106.166L122.169 71.9799L94.0201 43.8312L84.517 53.3342L93.3411 62.1583L85.4646 70.0349L76.6405 61.2108Z" fill="url(#paint3_radial_438_650)"/>
<g opacity="0.5">
<path d="M147 107.8C147 113.986 142.075 119 136 119C129.925 119 125 113.986 125 107.8C125 99.4 136 84 136 84C136 84 147 99.4 147 107.8Z" fill="url(#paint4_radial_438_650)"/>
<path d="M112.149 82L87.9825 106.166C85.7967 108.352 82.2527 108.352 80.0669 106.166L59.8337 85.9331C58.7471 84.8465 58.2006 83.4242 58.1944 82L112.149 82Z" fill="url(#paint5_radial_438_650)"/>
</g>
</g>
<defs>
<linearGradient id="paint0_linear_438_650" x1="219.428" y1="72.7883" x2="608.635" y2="72.7883" gradientUnits="userSpaceOnUse">
<stop stop-color="#FF506D"/>
<stop offset="0.486091" stop-color="#FFCC95"/>
<stop offset="0.490515" stop-color="#19F9D8"/>
<stop offset="0.763401" stop-color="#43D5EC"/>
<stop offset="0.994521" stop-color="#6CB1FF"/>
</linearGradient>
<linearGradient id="paint1_linear_438_650" x1="97.272" y1="19" x2="97.272" y2="128.214" gradientUnits="userSpaceOnUse">
<stop stop-color="#FF506D"/>
<stop offset="1" stop-color="#FFCC95"/>
</linearGradient>
<linearGradient id="paint2_linear_438_650" x1="97.272" y1="19" x2="97.272" y2="128.214" gradientUnits="userSpaceOnUse">
<stop stop-color="#FF506D"/>
<stop offset="1" stop-color="#FFCC95"/>
</linearGradient>
<radialGradient id="paint3_radial_438_650" cx="0" cy="0" r="1" gradientUnits="userSpaceOnUse" gradientTransform="translate(58.8937 37.4451) rotate(44.5582) scale(89.3486 87.6616)">
<stop stop-color="#19F9D8"/>
<stop offset="0.479167" stop-color="#43D5EC"/>
<stop offset="1" stop-color="#6CB1FF"/>
</radialGradient>
<radialGradient id="paint4_radial_438_650" cx="0" cy="0" r="1" gradientUnits="userSpaceOnUse" gradientTransform="translate(69.8013 85.8403) rotate(22.3066) scale(67.1545 46.2787)">
<stop stop-color="#19F9D8"/>
<stop offset="0.479167" stop-color="#43D5EC"/>
<stop offset="1" stop-color="#6CB1FF"/>
</radialGradient>
<radialGradient id="paint5_radial_438_650" cx="0" cy="0" r="1" gradientUnits="userSpaceOnUse" gradientTransform="translate(69.8013 85.8403) rotate(22.3066) scale(67.1545 46.2787)">
<stop stop-color="#19F9D8"/>
<stop offset="0.479167" stop-color="#43D5EC"/>
<stop offset="1" stop-color="#6CB1FF"/>
</radialGradient>
<clipPath id="clip0_438_650">
<rect width="100" height="91" fill="white" transform="translate(47 28)"/>
</clipPath>
</defs>
</svg>
