<svg width="122" height="196" viewBox="0 0 122 196" fill="none" xmlns="http://www.w3.org/2000/svg">
<path d="M122 196H80.5341C70.7696 156.221 48.524 129.151 29.8821 106.467C13.5597 86.6046 0 70.1043 0 51.3783C0 8.67943 11 0 11 0H122V196Z" fill="#3CD6BF"/>
<path d="M89.8328 196H122V0H17.3839C14.3734 7.6208 11 21.8356 11 47.2742C11 67.4203 24.5597 85.1717 40.8821 106.54C58.5102 129.617 79.3605 156.913 89.8328 196Z" fill="#19F9D8"/>
<path d="M122 0H33C33 0 22 8.7 22 51.5C22 70.2704 35.5597 86.8098 51.8822 106.719C70.4516 129.369 92.5967 156.38 102.42 196H122V0Z" fill="#7EFCE9"/>
</svg>
