<svg width="192" height="110" viewBox="0 0 192 110" fill="none" xmlns="http://www.w3.org/2000/svg">
<path d="M26.4036 22.8747L27.2636 38.231C27.2636 43.3907 26.4036 47.1171 24.6837 49.4103C22.9638 51.7035 19.3602 53.5873 13.8729 55.0615C19.2783 56.4538 22.841 58.4194 24.5609 60.9583C26.3627 63.4153 27.2636 67.2646 27.2636 72.5062L26.4036 86.8797C26.4036 90.4014 27.1817 93.1451 28.7378 95.1107C30.2939 96.9944 33.2013 98.0591 37.4601 98.3048V109.607C28.6968 109.279 22.4724 107.478 18.7869 104.202C15.1833 101.007 13.3815 95.7249 13.3815 88.3539L14.2414 73.489C14.2414 67.1827 9.73693 62.801 0.727905 60.344V49.9017C5.39622 48.837 8.79507 47.3219 10.9245 45.3563C13.1358 43.3088 14.2414 40.688 14.2414 37.4939L13.3815 21.8919C13.3815 14.1933 15.1833 8.78784 18.7869 5.67563C22.4724 2.48152 28.7378 0.720668 37.583 0.393066L37.7058 11.6953C33.3651 12.0229 30.3758 13.0876 28.7378 14.8894C27.1817 16.6912 26.4036 19.353 26.4036 22.8747Z" fill="white"/>
<path d="M165.596 87.1254L164.736 71.7692C164.736 66.6094 165.596 62.883 167.316 60.5898C169.036 58.2966 172.64 56.4129 178.127 54.9387C172.722 53.5464 169.159 51.5808 167.439 49.0418C165.637 46.5848 164.736 42.7355 164.736 37.4939L165.596 23.1204C165.596 19.5987 164.818 16.8551 163.262 14.8895C161.706 13.0057 158.799 11.941 154.54 11.6953L154.54 0.393118C163.303 0.720719 169.527 2.52252 173.213 5.79853C176.817 8.99264 178.618 14.2752 178.618 21.6462L177.758 36.5111C177.758 42.8174 182.263 47.1991 191.272 49.6561L191.272 60.0984C186.604 61.1631 183.205 62.6782 181.075 64.6438C178.864 66.6913 177.758 69.3121 177.758 72.5063L178.618 88.1082C178.618 95.8069 176.817 101.212 173.213 104.324C169.527 107.519 163.262 109.279 154.417 109.607L154.294 98.3048C158.635 97.9772 161.624 96.9125 163.262 95.1107C164.818 93.3089 165.596 90.6471 165.596 87.1254Z" fill="white"/>
<path d="M123.728 58.3931L95.4378 86.3148C89.9283 91.7525 80.9958 91.7525 75.4863 86.3148L58.8601 69.9052C55.6752 66.7617 54.3314 62.4892 54.8288 58.3931H123.728Z" fill="#E53935"/>
<mask id="path-5-inside-1" fill="white">
<path d="M92.3789 9.16814C93.4558 8.09119 95.2019 8.09119 96.2789 9.16814L135.279 48.1682C136.356 49.2452 136.356 50.9913 135.279 52.0683L96.2789 91.0683C89.8171 97.5301 79.3406 97.5301 72.8788 91.0683L53.3788 71.5683C46.917 65.1065 46.917 54.63 53.3788 48.1682L92.3789 9.16814Z"/>
</mask>
<path d="M92.3789 9.16814C93.4558 8.09119 95.2019 8.09119 96.2789 9.16814L135.279 48.1682C136.356 49.2452 136.356 50.9913 135.279 52.0683L96.2789 91.0683C89.8171 97.5301 79.3406 97.5301 72.8788 91.0683L53.3788 71.5683C46.917 65.1065 46.917 54.63 53.3788 48.1682L92.3789 9.16814Z" stroke="white" stroke-width="22.0618" mask="url(#path-5-inside-1)"/>
<rect x="59.2261" y="7.21814" width="55.1545" height="11.0309" rx="5.51545" transform="rotate(45 59.2261 7.21814)" fill="white"/>
<path d="M145.938 85.5425C145.938 91.6346 140.999 96.5733 134.907 96.5733C128.814 96.5733 123.876 91.6346 123.876 85.5425C123.876 77.2693 134.907 62.1018 134.907 62.1018C134.907 62.1018 145.938 77.2693 145.938 85.5425Z" fill="#E53935"/>
</svg>
