<?xml version="1.0" standalone="no"?>
<!DOCTYPE svg PUBLIC "-//W3C//DTD SVG 20010904//EN"
 "http://www.w3.org/TR/2001/REC-SVG-20010904/DTD/svg10.dtd">
<svg version="1.0" xmlns="http://www.w3.org/2000/svg"
 width="300.000000pt" height="300.000000pt" viewBox="0 0 300.000000 300.000000"
 preserveAspectRatio="xMidYMid meet">
<metadata>
Created by potrace 1.11, written by Peter Selinger 2001-2013
</metadata>
<g transform="translate(0.000000,300.000000) scale(0.100000,-0.100000)"
fill="#000000" stroke="none">
<path d="M1125 2590 l-250 -250 -215 216 c-118 118 -228 222 -244 231 -41 21
-133 14 -173 -15 -17 -12 -38 -37 -47 -56 -20 -42 -21 -118 -2 -154 8 -15 112
-124 230 -242 l216 -215 -269 -270 c-281 -282 -307 -315 -337 -430 -8 -27 -14
-88 -14 -135 0 -94 25 -180 74 -260 39 -63 700 -721 757 -754 172 -99 377 -93
537 14 32 22 321 303 670 652 657 658 633 630 598 696 -18 33 -1182 1195
-1213 1211 -50 25 -60 18 -318 -239z m702 -602 l413 -413 -127 -127 -128 -128
-818 0 -818 0 21 39 c12 21 130 146 261 277 l239 239 167 -167 c185 -183 210
-198 288 -177 53 15 81 35 106 76 24 39 29 115 9 154 -7 13 -85 97 -173 186
l-162 163 145 145 c80 80 149 145 155 145 5 0 196 -186 422 -412z"/>
<path d="M2595 1143 c-256 -385 -333 -619 -256 -778 129 -269 505 -252 607 27
40 109 5 263 -107 477 -50 95 -195 331 -204 331 -1 0 -19 -26 -40 -57z"/>
</g>
</svg>
