<svg width="192" height="192" viewBox="0 0 192 192" fill="none" xmlns="http://www.w3.org/2000/svg">
  <rect width="192" height="192" fill="#FAFAFA"/>
  <path d="M31.27 66.121L32.0698 80.4035C32.0698 85.2024 31.27 88.6683 29.6704 90.8012C28.0707 92.934 24.7191 94.686 19.6155 96.0572C24.6429 97.3521 27.9565 99.1803 29.5561 101.542C31.2319 103.827 32.0698 107.407 32.0698 112.282L31.27 125.651C31.27 128.926 31.9937 131.478 33.441 133.306C34.8883 135.058 37.5924 136.048 41.5534 136.277V146.789C33.4029 146.484 27.6137 144.808 24.1859 141.761C20.8343 138.79 19.1584 133.877 19.1584 127.022L19.9583 113.196C19.9583 107.331 15.7687 103.256 7.38965 100.97V91.2582C11.7315 90.268 14.8927 88.8588 16.8732 87.0306C18.9299 85.1263 19.9583 82.6887 19.9583 79.7179L19.1584 65.2069C19.1584 58.0466 20.8343 53.0191 24.1859 50.1246C27.6137 47.1538 33.441 45.5161 41.6677 45.2114L41.782 55.7233C37.7448 56.028 34.9644 57.0183 33.441 58.6941C31.9937 60.3699 31.27 62.8455 31.27 66.121Z" fill="#212121"/>
  <path d="M160.73 125.879L159.93 111.597C159.93 106.798 160.73 103.332 162.33 101.199C163.929 99.066 167.281 97.314 172.385 95.9429C167.357 94.648 164.044 92.8198 162.444 90.4584C160.768 88.1732 159.93 84.5931 159.93 79.718L160.73 66.3495C160.73 63.0741 160.006 60.5222 158.559 58.6941C157.112 56.9421 154.408 55.9518 150.447 55.7233L150.447 45.2114C158.597 45.5161 164.386 47.1919 167.814 50.2388C171.166 53.2096 172.842 58.1228 172.842 64.9784L172.042 78.8039C172.042 84.6692 176.231 88.7445 184.61 91.0297L184.61 100.742C180.268 101.732 177.107 103.141 175.127 104.969C173.07 106.874 172.042 109.311 172.042 112.282L172.842 126.793C172.842 133.953 171.166 138.981 167.814 141.876C164.386 144.846 158.559 146.484 150.332 146.789L150.218 136.277C154.255 135.972 157.036 134.982 158.559 133.306C160.006 131.63 160.73 129.155 160.73 125.879Z" fill="#212121"/>
  <path d="M127.119 98.6908L96.2587 129.551C90.2487 135.561 80.5047 135.561 74.4948 129.551L56.3583 111.414C52.884 107.94 51.4182 103.218 51.9608 98.6908H127.119Z" fill="#E53935"/>
  <mask id="path-6-inside-1" fill="white">
    <path d="M92.6324 53.3729C93.634 52.3712 95.258 52.3712 96.2597 53.3729L132.533 89.6459C133.534 90.6476 133.534 92.2716 132.533 93.2732L96.2597 129.546C90.2498 135.556 80.5058 135.556 74.4959 129.546L56.3593 111.41C50.3494 105.4 50.3494 95.6559 56.3593 89.6459L92.6324 53.3729Z"/>
  </mask>
  <path d="M92.6324 53.3729C93.634 52.3712 95.258 52.3712 96.2597 53.3729L132.533 89.6459C133.534 90.6476 133.534 92.2716 132.533 93.2732L96.2597 129.546C90.2498 135.556 80.5058 135.556 74.4959 129.546L56.3593 111.41C50.3494 105.4 50.3494 95.6559 56.3593 89.6459L92.6324 53.3729Z" stroke="#212121" stroke-width="20.5191" mask="url(#path-6-inside-1)"/>
  <rect x="61.7976" y="51.5592" width="51.2979" height="10.2596" rx="5.12979" transform="rotate(45 61.7976 51.5592)" fill="#212121"/>
  <path d="M142.446 124.407C142.446 130.073 137.853 134.666 132.186 134.666C126.52 134.666 121.927 130.073 121.927 124.407C121.927 116.712 132.186 102.605 132.186 102.605C132.186 102.605 142.446 116.712 142.446 124.407Z" fill="#E53935"/>
</svg>
