<svg width="91" height="20" viewBox="0 0 91 20" fill="none" xmlns="http://www.w3.org/2000/svg">
<path d="M9.7338 18.3531C6.80379 18.7288 3.80327 17.1154 2.16726 14.7168C1.22232 13.3253 0.773649 11.6924 0.781582 10.0127C0.788634 8.43192 1.18618 6.13331 2.37528 4.96809C4.18494 3.19375 4.45644 7.34981 4.57896 8.34882C4.78285 9.96253 4.98858 11.576 5.19599 13.1892C5.51949 15.707 6.73063 18.7668 9.7338 18.3531Z" fill="#FBB03B"/>
<path d="M15.9235 19.5607C13.3954 20.4377 10.3826 19.1478 9.08856 16.8475C8.25558 15.331 8.07655 13.539 8.59319 11.8869C9.10091 10.3345 10.0035 10.9445 10.4443 12.0938C11.3592 14.4498 12.313 20.8974 15.9235 19.5607Z" fill="#1B4964"/>
<path d="M7.58212 1.9304C10.506 1.55555 13.5065 3.1407 15.146 5.53744C16.0963 6.92721 16.5352 8.55569 16.5299 10.2337C16.5246 11.7366 16.1174 14.411 14.8225 15.4126C13.0005 16.8218 12.8331 12.7135 12.7123 11.7649C12.5069 10.1506 12.3059 8.53624 12.0953 6.92279C11.7691 4.41554 10.5271 1.5246 7.58212 1.9304Z" fill="#E6302B"/>
<path d="M1.26198 0.839442C3.73803 -0.0189998 6.68214 1.20191 8.00964 3.41565C8.84201 4.84079 9.08838 6.53513 8.6963 8.13929C8.31198 9.67582 7.3926 9.89065 6.7835 8.42485C5.79802 6.05817 4.95446 -0.490214 1.26198 0.839442Z" fill="#8CC63F"/>
<path d="M26.539 9.66079V14.9653H27.2742V9.61482C27.2742 7.62325 26.3487 6.62751 24.4976 6.62751C23.8076 6.62751 23.23 6.73802 22.7646 6.95904C22.2834 7.19385 21.8816 7.56526 21.609 8.02701H21.5561L21.594 6.98114V3.25652H20.8509V14.9653H21.594V10.4512C21.5934 9.3419 21.8197 8.5404 22.2727 8.04646C22.7258 7.55253 23.4401 7.3056 24.4156 7.3056C25.1402 7.30799 25.6752 7.4948 26.0207 7.86611C26.3663 8.23742 26.539 8.83568 26.539 9.66079Z" fill="#444444"/>
<path fill-rule="evenodd" clip-rule="evenodd" d="M35.6878 13.991C36.3342 13.2413 36.6575 12.199 36.6575 10.864C36.6557 9.54965 36.3357 8.51501 35.6975 7.76001C35.0594 7.00501 34.1803 6.6275 33.0602 6.6275C31.936 6.6275 31.0507 6.99997 30.4043 7.74498C29.7579 8.48999 29.4347 9.52967 29.4347 10.864C29.4312 11.711 29.5763 12.4586 29.8701 13.1069C30.13 13.7185 30.5674 14.2377 31.1254 14.5966C31.6923 14.9493 32.349 15.1299 33.0161 15.1164C34.1508 15.1158 35.0415 14.7407 35.6878 13.991ZM30.9623 13.4942C30.4693 12.8653 30.2227 11.9886 30.2227 10.864C30.2227 9.73 30.4666 8.85335 30.9543 8.23388C31.4421 7.6144 32.1361 7.30471 33.0364 7.30471C33.9366 7.30824 34.6356 7.62094 35.1334 8.24272C35.6312 8.86449 35.88 9.73973 35.88 10.8684C35.88 11.9918 35.6338 12.8685 35.1413 13.4986C34.6489 14.1287 33.9522 14.4437 33.0514 14.4437C32.1517 14.4395 31.4553 14.123 30.9623 13.4942Z" fill="#444444"/>
<path d="M43.9736 12.8364C43.9736 13.5684 43.696 14.1316 43.1406 14.5259C42.5853 14.9202 41.7975 15.1171 40.7774 15.1164C39.6868 15.1164 38.8214 14.9482 38.1815 14.6116V13.8071C38.9862 14.2154 39.8756 14.4275 40.7774 14.426C41.5819 14.426 42.1933 14.2916 42.6118 14.0228C43.0302 13.7541 43.2391 13.3966 43.2385 12.9505C43.2422 12.545 43.0578 12.1609 42.7396 11.9108C42.4064 11.6296 41.8599 11.3535 41.1 11.0824C40.2849 10.7877 39.7123 10.5331 39.382 10.3185C39.0828 10.1363 38.8278 9.88959 38.6354 9.59625C38.4597 9.29973 38.3721 8.95883 38.3833 8.61404C38.3698 8.02843 38.6614 7.478 39.1529 7.1615C39.6647 6.80787 40.3814 6.63105 41.3028 6.63105C42.1628 6.62707 43.0149 6.79602 43.8088 7.1279L43.5329 7.80157C42.7325 7.47031 41.9897 7.30472 41.3045 7.30472C40.6388 7.30472 40.1099 7.41523 39.7179 7.63625C39.3259 7.85727 39.1308 8.16316 39.1326 8.55392C39.1174 8.94928 39.2869 9.32917 39.591 9.58122C39.893 9.83699 40.4845 10.1229 41.3654 10.4388C42.1005 10.7046 42.6356 10.9442 42.9705 11.1575C43.2737 11.3394 43.5317 11.5878 43.7251 11.8843C43.8957 12.1718 43.9818 12.5019 43.9736 12.8364Z" fill="#444444"/>
<path d="M49.4643 14.3332C49.0587 14.4198 48.6448 14.4605 48.2302 14.4543C47.7607 14.4537 47.4158 14.3031 47.1954 14.0025C46.975 13.7019 46.8648 13.2378 46.8648 12.6101V7.43291H49.2624V6.78576H46.8648V4.80719H46.4823L46.1068 6.65757L44.8992 6.99617V7.43291H46.1103V12.7153C46.1097 13.5428 46.2811 14.1499 46.6242 14.5365C46.9674 14.9231 47.4989 15.1164 48.2188 15.1164C48.641 15.1236 49.0616 15.0624 49.4643 14.9352V14.3332Z" fill="#444444"/>
<path d="M51.1197 4.51164C51.12 4.03032 51.2775 3.78987 51.5922 3.79049C51.7379 3.78572 51.8757 3.85698 51.9562 3.9788C52.0523 4.13829 52.0982 4.32324 52.0876 4.50925C52.0967 4.69517 52.0511 4.87968 51.9562 5.0397C51.8779 5.16497 51.7396 5.2395 51.5922 5.23596C51.2779 5.23596 51.1204 4.99455 51.1197 4.51164Z" fill="#444444"/>
<path d="M51.9668 14.9653H51.2246V6.78577H51.9668V14.9653Z" fill="#444444"/>
<path d="M60.3857 9.66078V14.9653H61.1174V9.61481C61.1174 7.62324 60.1921 6.6275 58.3416 6.6275C56.99 6.62688 56.0498 7.05336 55.5209 7.90677H55.4707L55.3287 6.78575H54.6985V14.9653H55.4407V10.4503C55.4407 9.34101 55.6672 8.5395 56.1203 8.04557C56.5734 7.55163 57.2874 7.30471 58.2623 7.30471C58.988 7.30763 59.5234 7.49479 59.8683 7.8661C60.2132 8.23741 60.3857 8.83567 60.3857 9.66078Z" fill="#444444"/>
<path fill-rule="evenodd" clip-rule="evenodd" d="M70.1251 6.78577V7.30472L68.4371 7.40993C68.8708 7.92897 69.1096 8.58399 69.1123 9.26119C69.1123 10.0492 68.8508 10.6878 68.3278 11.177C67.8048 11.6662 67.1032 11.9105 66.2228 11.9099C65.962 11.917 65.701 11.9019 65.4427 11.8648C65.1791 11.9945 64.9481 12.1825 64.7675 12.4147C64.6194 12.6065 64.5376 12.8414 64.5348 13.084C64.5189 13.3152 64.6333 13.536 64.831 13.656C65.0284 13.7738 65.3599 13.8328 65.8253 13.8328H67.2515C68.1365 13.8328 68.8141 14.012 69.2842 14.3703C69.7543 14.7286 69.9894 15.2591 69.9894 15.9616C69.9894 16.8245 69.6406 17.4905 68.943 17.9597C68.2455 18.4288 67.2512 18.6645 65.9602 18.6669C64.9347 18.6669 64.1414 18.4689 63.5802 18.0728C63.019 17.6767 62.7375 17.1248 62.7357 16.4169C62.7191 15.8997 62.9067 15.3968 63.2576 15.0174C63.6049 14.6461 64.075 14.3927 64.6679 14.2571C64.4363 14.1618 64.2333 14.0076 64.0791 13.8098C63.9326 13.6189 63.8547 13.384 63.8578 13.1432C63.8578 12.5968 64.2054 12.1153 64.9006 11.6986C64.4423 11.517 64.0534 11.1941 63.79 10.7765C63.5209 10.345 63.3828 9.84433 63.3924 9.33545C63.3924 8.51795 63.6513 7.86196 64.169 7.36749C64.6867 6.87303 65.3857 6.62601 66.266 6.62663C66.8013 6.62663 67.2165 6.67941 67.5115 6.78488L70.1251 6.78577ZM63.522 16.3506C63.522 17.474 64.355 18.0357 66.021 18.0357C68.1612 18.0357 69.2316 17.3511 69.2322 15.982C69.2322 15.4898 69.0647 15.1335 68.7297 14.9131C68.3948 14.6927 67.8518 14.5822 67.1008 14.5816H65.7653C64.2692 14.5816 63.5214 15.171 63.522 16.3497V16.3506ZM64.1452 9.33762C64.1455 9.96881 64.3367 10.4588 64.719 10.8074C65.1016 11.1564 65.6131 11.3308 66.2537 11.3308C66.9336 11.3308 67.4549 11.1578 67.8174 10.8119C68.18 10.4659 68.3615 9.96492 68.3622 9.30893C68.3622 8.61228 68.1756 8.08917 67.8024 7.73969C67.4293 7.39021 66.908 7.21605 66.2387 7.2172C65.5882 7.2172 65.0767 7.404 64.7041 7.77771C64.3317 8.15115 64.1455 8.67106 64.1452 9.33762Z" fill="#444444"/>
<path d="M72.2521 13.6409C71.8519 13.6409 71.6518 13.8867 71.6518 14.3783C71.6518 14.8704 71.8519 15.1165 72.2521 15.1165C72.6635 15.1158 72.8691 14.8698 72.8691 14.3783C72.8691 13.8867 72.6635 13.6409 72.2521 13.6409Z" fill="#444444"/>
<path fill-rule="evenodd" clip-rule="evenodd" d="M78.4391 6.62751C78.9677 6.61407 79.4921 6.72494 79.9703 6.95109C80.4004 7.1668 80.7856 7.53546 81.1259 8.05707H81.1717C81.1417 7.42469 81.1267 6.80583 81.1267 6.2005V3.25652H81.8619V14.9653H81.3744L81.1867 13.7161H81.1267C80.5062 14.6497 79.6156 15.1164 78.455 15.1164C77.3303 15.1164 76.4699 14.7652 75.8741 14.0626C75.2782 13.36 74.98 12.3378 74.9794 10.9958C74.9794 9.58122 75.2732 8.49999 75.8608 7.75206C76.4485 7.00413 77.3079 6.62928 78.4391 6.62751ZM78.4391 7.30472C77.5489 7.30472 76.8798 7.6183 76.432 8.24538C75.9842 8.87246 75.7604 9.78306 75.7604 10.9772C75.7604 13.2952 76.6583 14.4543 78.4541 14.4543C79.3744 14.4543 80.0502 14.1858 80.4815 13.6489C80.9128 13.112 81.1279 12.2279 81.1267 10.9966V10.8684C81.1267 9.60421 80.9152 8.69511 80.4921 8.14106C80.069 7.587 79.3847 7.30825 78.4391 7.30472Z" fill="#444444"/>
<path fill-rule="evenodd" clip-rule="evenodd" d="M85.1198 14.0175C85.7826 14.7502 86.707 15.1164 87.8929 15.1164C88.3261 15.1192 88.7586 15.0819 89.1851 15.005C89.6241 14.9169 90.0525 14.7793 90.4606 14.5948V13.9176C90.0287 14.0999 89.58 14.2411 89.1216 14.3393C88.7164 14.4088 88.3057 14.4414 87.8946 14.4366C86.9385 14.4395 86.204 14.1448 85.691 13.5525C85.1779 12.9602 84.9164 12.1023 84.9064 10.9789H90.7814V10.3769C90.7806 9.22228 90.5029 8.30876 89.9485 7.63624C89.394 6.96372 88.6359 6.6275 87.6751 6.6275C86.5892 6.62688 85.7262 7.01942 85.0863 7.8051C84.4463 8.59078 84.1263 9.63541 84.1263 10.9392C84.1257 12.2588 84.4569 13.2849 85.1198 14.0175ZM85.7844 8.06855C86.259 7.54968 86.8887 7.29002 87.6736 7.28968C88.3974 7.29088 88.9647 7.55823 89.3764 8.09154C89.788 8.62491 89.9934 9.36612 89.9934 10.315H84.9514C85.0319 9.33659 85.3095 8.58777 85.7844 8.06855Z" fill="#444444"/>
</svg>
