<svg width="91" height="12" viewBox="0 0 91 12" fill="none" xmlns="http://www.w3.org/2000/svg">
<path fill-rule="evenodd" clip-rule="evenodd" d="M10.08 0.621185C7.60039 0.621185 6.05064 1.86099 5.43074 4.34059C6.36059 3.10079 7.44542 2.63586 8.68522 2.94581C9.39259 3.12266 9.89819 3.63583 10.4578 4.2039C11.3695 5.12928 12.4246 6.2003 14.7293 6.2003C17.2089 6.2003 18.7586 4.96049 19.3785 2.48089C18.4487 3.72069 17.3638 4.18562 16.124 3.87567C15.4167 3.69882 14.9111 3.18565 14.3514 2.61758C13.4398 1.6922 12.3846 0.621185 10.08 0.621185ZM5.43074 6.2003C2.95113 6.2003 1.40138 7.4401 0.781479 9.9197C1.71133 8.6799 2.79616 8.21497 4.03596 8.52492C4.74334 8.70177 5.24893 9.21494 5.80857 9.78301C6.72023 10.7084 7.77538 11.7794 10.08 11.7794C12.5596 11.7794 14.1094 10.5396 14.7293 8.06C13.7994 9.2998 12.7146 9.76473 11.4748 9.45478C10.7674 9.27793 10.2618 8.76476 9.70217 8.19669C8.7905 7.27131 7.73536 6.2003 5.43074 6.2003Z" fill="url(#paint0_linear)"/>
<path fill-rule="evenodd" clip-rule="evenodd" d="M28.6757 5.32279H27.0529V8.46362C27.0529 9.30118 27.6025 9.28809 28.6757 9.23574V10.5052C26.5032 10.7669 25.6395 10.1649 25.6395 8.46362V5.32279H24.4355V3.96176H25.6395V2.204L27.0529 1.78522V3.96176H28.6757V5.32279ZM34.8616 3.96176H36.275V10.5052H34.8616V9.56291C34.3643 10.2565 33.5922 10.6753 32.5714 10.6753C30.7916 10.6753 29.3128 9.17031 29.3128 7.23346C29.3128 5.28353 30.7916 3.79163 32.5714 3.79163C33.5922 3.79163 34.3643 4.21041 34.8616 4.89093V3.96176ZM32.7939 9.32735C33.9717 9.32735 34.8616 8.45053 34.8616 7.23346C34.8616 6.01639 33.9717 5.13957 32.7939 5.13957C31.6161 5.13957 30.7262 6.01639 30.7262 7.23346C30.7262 8.45053 31.6161 9.32735 32.7939 9.32735ZM38.6306 2.98025C38.1333 2.98025 37.7276 2.56147 37.7276 2.07726C37.7276 1.57996 38.1333 1.17427 38.6306 1.17427C39.1279 1.17427 39.5336 1.57996 39.5336 2.07726C39.5336 2.56147 39.1279 2.98025 38.6306 2.98025ZM37.9239 10.5052V3.96176H39.3373V10.5052H37.9239ZM40.9731 10.5052V0.951797H42.3865V10.5052H40.9731ZM51.5603 3.96176H53.0522L50.9976 10.5052H49.6104L48.2494 6.09491L46.8753 10.5052H45.4881L43.4334 3.96176H44.9253L46.1948 8.47671L47.5689 3.96176H48.9168L50.2778 8.47671L51.5603 3.96176ZM54.8059 2.98025C54.3086 2.98025 53.9029 2.56147 53.9029 2.07726C53.9029 1.57996 54.3086 1.17427 54.8059 1.17427C55.3032 1.17427 55.7089 1.57996 55.7089 2.07726C55.7089 2.56147 55.3032 2.98025 54.8059 2.98025ZM54.0992 10.5052V3.96176H55.5126V10.5052H54.0992ZM60.5902 3.79163C62.056 3.79163 63.1029 4.78623 63.1029 6.48751V10.5052H61.6895V6.63147C61.6895 5.63687 61.1137 5.1134 60.2238 5.1134C59.2946 5.1134 58.5618 5.66305 58.5618 6.9979V10.5052H57.1484V3.96176H58.5618V4.79932C58.9936 4.1188 59.7003 3.79163 60.5902 3.79163ZM69.8033 1.3444H71.2167V10.5052H69.8033V9.56291C69.306 10.2565 68.5339 10.6753 67.5132 10.6753C65.7333 10.6753 64.2545 9.17031 64.2545 7.23346C64.2545 5.28353 65.7333 3.79163 67.5132 3.79163C68.5339 3.79163 69.306 4.21041 69.8033 4.89093V1.3444ZM67.7356 9.32735C68.9134 9.32735 69.8033 8.45053 69.8033 7.23346C69.8033 6.01639 68.9134 5.13957 67.7356 5.13957C66.5578 5.13957 65.6679 6.01639 65.6679 7.23346C65.6679 8.45053 66.5578 9.32735 67.7356 9.32735ZM75.9541 10.6753C73.978 10.6753 72.4992 9.17031 72.4992 7.23346C72.4992 5.28353 73.978 3.79163 75.9541 3.79163C77.2366 3.79163 78.349 4.45906 78.8725 5.47983L77.6554 6.18652C77.3675 5.57144 76.7263 5.17883 75.9411 5.17883C74.7894 5.17883 73.9126 6.05565 73.9126 7.23346C73.9126 8.41127 74.7894 9.28809 75.9411 9.28809C76.7263 9.28809 77.3675 8.8824 77.6816 8.28041L78.8987 8.97401C78.349 10.0079 77.2366 10.6753 75.9541 10.6753ZM81.2281 5.76774C81.2281 6.95864 84.7485 6.23886 84.7485 8.65992C84.7485 9.9686 83.6099 10.6753 82.1965 10.6753C80.8879 10.6753 79.9456 10.0864 79.5268 9.14414L80.7439 8.43745C80.9533 9.02635 81.4768 9.3797 82.1965 9.3797C82.8247 9.3797 83.3089 9.17031 83.3089 8.64684C83.3089 7.48211 79.7886 8.13645 79.7886 5.79391C79.7886 4.56376 80.8486 3.79163 82.1835 3.79163C83.2566 3.79163 84.1465 4.28893 84.6045 5.15266L83.4136 5.82009C83.1781 5.3097 82.72 5.07414 82.1835 5.07414C81.6731 5.07414 81.2281 5.29662 81.2281 5.76774ZM87.2611 5.76774C87.2611 6.95864 90.7815 6.23886 90.7815 8.65992C90.7815 9.9686 89.6429 10.6753 88.2296 10.6753C86.9209 10.6753 85.9786 10.0864 85.5598 9.14414L86.7769 8.43745C86.9863 9.02635 87.5098 9.3797 88.2296 9.3797C88.8577 9.3797 89.3419 9.17031 89.3419 8.64684C89.3419 7.48211 85.8216 8.13645 85.8216 5.79391C85.8216 4.56376 86.8816 3.79163 88.2165 3.79163C89.2896 3.79163 90.1795 4.28893 90.6375 5.15266L89.4466 5.82009C89.2111 5.3097 88.753 5.07414 88.2165 5.07414C87.7061 5.07414 87.2611 5.29662 87.2611 5.76774Z" fill="#2D3748"/>
<defs>
<linearGradient id="paint0_linear" x1="0.264894" y1="0.621186" x2="19.3785" y2="11.6416" gradientUnits="userSpaceOnUse">
<stop stop-color="#2298BD"/>
<stop offset="1" stop-color="#0ED7B5"/>
</linearGradient>
</defs>
</svg>
