<svg width="92" height="24" viewBox="0 0 92 24" fill="none" xmlns="http://www.w3.org/2000/svg">
<path d="M16.3439 8.04393L1.78148 22.6064M17.9042 15.3251H9.06269M20.7542 12.4543C21.9253 11.2832 22.5832 9.69488 22.5832 8.03873C22.5832 6.38258 21.9253 4.79427 20.7542 3.6232C19.5832 2.45212 17.9949 1.79422 16.3387 1.79422C14.6826 1.79422 13.0942 2.45212 11.9232 3.6232L4.902 10.6444V19.4858H13.7435L20.7542 12.4543Z" stroke="#0066FF" stroke-width="2" stroke-linecap="round" stroke-linejoin="round"/>
<path d="M37.5045 14.9031H32.1472V20.5438H29.8343V7.23284H38.2908V9.09784H32.1472V13.0564H37.5045V14.9031Z" fill="#24292E"/>
<path d="M44.0686 20.7267C42.6607 20.7267 41.5179 20.2848 40.6403 19.401C39.7687 18.5112 39.333 17.3288 39.333 15.8539V15.5796C39.333 14.5923 39.5219 13.7116 39.8998 12.9375C40.2837 12.1574 40.8201 11.551 41.5088 11.1183C42.1975 10.6855 42.9654 10.4692 43.8126 10.4692C45.1596 10.4692 46.1987 10.8988 46.9301 11.7582C47.6676 12.6176 48.0363 13.8335 48.0363 15.4059V16.3019H41.5728C41.6398 17.1185 41.911 17.7646 42.3864 18.24C42.8679 18.7154 43.4713 18.9531 44.1966 18.9531C45.2144 18.9531 46.0433 18.5417 46.6833 17.7189L47.8809 18.8617C47.4847 19.4528 46.9545 19.913 46.2901 20.2421C45.6319 20.5651 44.8914 20.7267 44.0686 20.7267ZM43.8035 12.2519C43.194 12.2519 42.7003 12.4652 42.3224 12.8918C41.9507 13.3185 41.713 13.9127 41.6094 14.6745H45.8422V14.51C45.7934 13.7664 45.5953 13.2057 45.2479 12.8278C44.9005 12.4439 44.419 12.2519 43.8035 12.2519Z" fill="#24292E"/>
<path d="M55.6791 20.5438C55.5816 20.3549 55.4963 20.0471 55.4231 19.6205C54.7162 20.3579 53.8507 20.7267 52.8268 20.7267C51.8333 20.7267 51.0227 20.4432 50.395 19.8764C49.7672 19.3096 49.4533 18.6087 49.4533 17.7737C49.4533 16.7193 49.8434 15.9118 50.6235 15.3511C51.4097 14.7843 52.5312 14.5008 53.9878 14.5008H55.35V13.8518C55.35 13.3398 55.2068 12.9314 54.9203 12.6267C54.6339 12.3159 54.1981 12.1605 53.613 12.1605C53.1071 12.1605 52.6927 12.2884 52.3697 12.5444C52.0466 12.7943 51.8851 13.1143 51.8851 13.5044H49.6636C49.6636 12.9619 49.8434 12.4561 50.203 11.9868C50.5626 11.5114 51.0502 11.1396 51.6657 10.8714C52.2874 10.6032 52.9791 10.4692 53.741 10.4692C54.899 10.4692 55.8224 10.7617 56.5111 11.3468C57.1998 11.9258 57.5533 12.7425 57.5716 13.7969V18.2583C57.5716 19.1481 57.6965 19.8581 57.9464 20.3884V20.5438H55.6791ZM53.2382 18.9439C53.677 18.9439 54.0884 18.8373 54.4724 18.624C54.8624 18.4106 55.155 18.1242 55.35 17.7646V15.8996H54.1524C53.3296 15.8996 52.711 16.0428 52.2965 16.3293C51.8821 16.6157 51.6749 17.021 51.6749 17.5452C51.6749 17.9718 51.815 18.3131 52.0954 18.5691C52.3819 18.819 52.7628 18.9439 53.2382 18.9439Z" fill="#24292E"/>
<path d="M62.682 8.24762V10.652H64.4282V12.2976H62.682V17.8194C62.682 18.1973 62.7552 18.4716 62.9014 18.6422C63.0538 18.8068 63.322 18.8891 63.7059 18.8891C63.9619 18.8891 64.2209 18.8586 64.483 18.7977V20.5164C63.9772 20.6566 63.4896 20.7267 63.0203 20.7267C61.3137 20.7267 60.4605 19.785 60.4605 17.9017V12.2976H58.8332V10.652H60.4605V8.24762H62.682Z" fill="#24292E"/>
<path d="M68.3227 11.7308C69.048 10.8897 69.9653 10.4692 71.0745 10.4692C73.1833 10.4692 74.2529 11.6729 74.2834 14.0803V20.5438H72.0619V14.1626C72.0619 13.48 71.9125 12.9985 71.6139 12.7181C71.3213 12.4317 70.8886 12.2884 70.3157 12.2884C69.4259 12.2884 68.7615 12.6846 68.3227 13.4769V20.5438H66.1012V6.50146H68.3227V11.7308Z" fill="#24292E"/>
<path d="M80.8932 20.7267C79.4853 20.7267 78.3425 20.2848 77.4649 19.401C76.5933 18.5112 76.1575 17.3288 76.1575 15.8539V15.5796C76.1575 14.5923 76.3465 13.7116 76.7244 12.9375C77.1083 12.1574 77.6447 11.551 78.3334 11.1183C79.0221 10.6855 79.79 10.4692 80.6372 10.4692C81.9841 10.4692 83.0233 10.8988 83.7547 11.7582C84.4921 12.6176 84.8609 13.8335 84.8609 15.4059V16.3019H78.3974C78.4644 17.1185 78.7356 17.7646 79.211 18.24C79.6925 18.7154 80.2959 18.9531 81.0212 18.9531C82.039 18.9531 82.8679 18.5417 83.5078 17.7189L84.7055 18.8617C84.3093 19.4528 83.7791 19.913 83.1147 20.2421C82.4565 20.5651 81.716 20.7267 80.8932 20.7267ZM80.6281 12.2519C80.0186 12.2519 79.5249 12.4652 79.147 12.8918C78.7752 13.3185 78.5376 13.9127 78.4339 14.6745H82.6668V14.51C82.618 13.7664 82.4199 13.2057 82.0725 12.8278C81.7251 12.4439 81.2436 12.2519 80.6281 12.2519Z" fill="#24292E"/>
<path d="M91.7723 12.6816C91.4798 12.6328 91.1781 12.6084 90.8673 12.6084C89.8494 12.6084 89.1638 12.9985 88.8103 13.7786V20.5438H86.5887V10.652H88.7097L88.7646 11.7582C89.3009 10.8988 90.0445 10.4692 90.9953 10.4692C91.3122 10.4692 91.5743 10.5118 91.7815 10.5971L91.7723 12.6816Z" fill="#24292E"/>
</svg>
