<svg width="89" height="23" viewBox="0 0 89 23" fill="none" xmlns="http://www.w3.org/2000/svg">
<path d="M20.0215 11.2483C21.1473 10.1225 21.7798 8.59552 21.7798 7.00334C21.7798 5.41115 21.1473 3.88418 20.0215 2.75834C18.8956 1.63249 17.3687 1 15.7765 1C14.1843 1 12.6573 1.63249 11.5315 2.75834L4.78148 9.50834V18.0083H13.2815L20.0215 11.2483Z" stroke="#0066FF" stroke-width="2" stroke-linecap="round" stroke-linejoin="round"/>
<path d="M15.7815 7.00833L1.78148 21.0083" stroke="#0066FF" stroke-width="2" stroke-linecap="round" stroke-linejoin="round"/>
<path d="M17.2815 14.0083H8.78148" stroke="#0066FF" stroke-width="2" stroke-linecap="round" stroke-linejoin="round"/>
<path d="M36.1248 13.6026H30.9744V19.0254H28.7508V6.22856H36.8807V8.02153H30.9744V11.8272H36.1248V13.6026Z" fill="#24292E"/>
<path d="M42.4354 19.2012C41.0819 19.2012 39.9832 18.7764 39.1395 17.9268C38.3016 17.0713 37.8826 15.9346 37.8826 14.5166V14.253C37.8826 13.3038 38.0643 12.4571 38.4276 11.7129C38.7967 10.9629 39.3123 10.3799 39.9744 9.96391C40.6366 9.5479 41.3748 9.33989 42.1893 9.33989C43.4842 9.33989 44.4832 9.75298 45.1864 10.5791C45.8953 11.4053 46.2498 12.5743 46.2498 14.086V14.9473H40.036C40.1004 15.7325 40.3612 16.3536 40.8182 16.8106C41.2811 17.2676 41.8612 17.4961 42.5584 17.4961C43.5369 17.4961 44.3338 17.1006 44.9491 16.3096L46.1004 17.4082C45.7196 17.9766 45.2098 18.419 44.5711 18.7354C43.9383 19.0459 43.2264 19.2012 42.4354 19.2012ZM42.1805 11.0538C41.5946 11.0538 41.1199 11.2588 40.7567 11.669C40.3992 12.0791 40.1707 12.6504 40.0711 13.3829H44.1405V13.2247C44.0936 12.5098 43.9032 11.9707 43.5692 11.6075C43.2352 11.2383 42.7723 11.0538 42.1805 11.0538Z" fill="#24292E"/>
<path d="M53.5975 19.0254C53.5037 18.8438 53.4217 18.5479 53.3514 18.1377C52.6717 18.8467 51.8397 19.2012 50.8553 19.2012C49.9002 19.2012 49.1209 18.9288 48.5174 18.3838C47.9139 17.8389 47.6121 17.1651 47.6121 16.3624C47.6121 15.3487 47.9871 14.5723 48.7371 14.0332C49.493 13.4883 50.5711 13.2159 51.9715 13.2159H53.2811V12.5918C53.2811 12.0997 53.1434 11.7071 52.868 11.4141C52.5926 11.1153 52.1737 10.9659 51.6112 10.9659C51.1248 10.9659 50.7264 11.0889 50.4158 11.335C50.1053 11.5752 49.95 11.8829 49.95 12.2579H47.8143C47.8143 11.7364 47.9871 11.25 48.3328 10.7989C48.6785 10.3418 49.1473 9.98442 49.7391 9.72661C50.3367 9.4688 51.0018 9.33989 51.7342 9.33989C52.8475 9.33989 53.7352 9.62114 54.3973 10.1836C55.0594 10.7403 55.3992 11.5254 55.4168 12.5391V16.8282C55.4168 17.6836 55.5369 18.3663 55.7772 18.876V19.0254H53.5975ZM51.2508 17.4874C51.6727 17.4874 52.0682 17.3848 52.4373 17.1797C52.8123 16.9747 53.0936 16.6993 53.2811 16.3536V14.5606H52.1297C51.3387 14.5606 50.744 14.6983 50.3455 14.9737C49.9471 15.2491 49.7479 15.6387 49.7479 16.1426C49.7479 16.5528 49.8826 16.8809 50.1522 17.127C50.4276 17.3672 50.7938 17.4874 51.2508 17.4874Z" fill="#24292E"/>
<path d="M60.3299 7.20415V9.51567H62.0086V11.0977H60.3299V16.4063C60.3299 16.7696 60.4002 17.0332 60.5408 17.1973C60.6873 17.3555 60.9451 17.4346 61.3143 17.4346C61.5604 17.4346 61.8094 17.4053 62.0614 17.3467V18.9991C61.575 19.1338 61.1063 19.2012 60.6551 19.2012C59.0145 19.2012 58.1942 18.2959 58.1942 16.4854V11.0977H56.6297V9.51567H58.1942V7.20415H60.3299Z" fill="#24292E"/>
<path d="M65.7528 10.5528C66.45 9.74419 67.3319 9.33989 68.3983 9.33989C70.4256 9.33989 71.4539 10.4971 71.4832 12.8116V19.0254H69.3475V12.8907C69.3475 12.2344 69.2039 11.7715 68.9168 11.502C68.6356 11.2266 68.2196 11.0889 67.6688 11.0889C66.8133 11.0889 66.1746 11.4698 65.7528 12.2315V19.0254H63.617V5.52544H65.7528V10.5528Z" fill="#24292E"/>
<path d="M77.8377 19.2012C76.4842 19.2012 75.3856 18.7764 74.5418 17.9268C73.7039 17.0713 73.285 15.9346 73.285 14.5166V14.253C73.285 13.3038 73.4666 12.4571 73.8299 11.7129C74.1991 10.9629 74.7147 10.3799 75.3768 9.96391C76.0389 9.5479 76.7772 9.33989 77.5916 9.33989C78.8866 9.33989 79.8856 9.75298 80.5887 10.5791C81.2977 11.4053 81.6522 12.5743 81.6522 14.086V14.9473H75.4383C75.5028 15.7325 75.7635 16.3536 76.2205 16.8106C76.6834 17.2676 77.2635 17.4961 77.9608 17.4961C78.9393 17.4961 79.7362 17.1006 80.3514 16.3096L81.5028 17.4082C81.1219 17.9766 80.6121 18.419 79.9735 18.7354C79.3407 19.0459 78.6287 19.2012 77.8377 19.2012ZM77.5828 11.0538C76.9969 11.0538 76.5223 11.2588 76.159 11.669C75.8016 12.0791 75.5731 12.6504 75.4735 13.3829H79.5428V13.2247C79.4959 12.5098 79.3055 11.9707 78.9715 11.6075C78.6375 11.2383 78.1746 11.0538 77.5828 11.0538Z" fill="#24292E"/>
<path d="M88.2967 11.4668C88.0155 11.42 87.7254 11.3965 87.4266 11.3965C86.4481 11.3965 85.7889 11.7715 85.4491 12.5215V19.0254H83.3133V9.51567H85.3524L85.4051 10.5791C85.9207 9.75298 86.6356 9.33989 87.5496 9.33989C87.8543 9.33989 88.1063 9.38091 88.3055 9.46294L88.2967 11.4668Z" fill="#24292E"/>
</svg>
