<svg width="88" height="23" viewBox="0 0 88 23" fill="none" xmlns="http://www.w3.org/2000/svg">
<path d="M28.9936 17.6349C28.0759 17.6584 27.1728 17.3985 26.4029 16.8894C25.6837 16.4064 25.1496 15.6861 24.8903 14.8494L26.4673 14.2595C26.6858 14.7734 27.0429 15.2137 27.4971 15.5294C27.9582 15.844 28.503 16.007 29.0579 15.9964C29.5913 16.0248 30.1177 15.8625 30.5461 15.5376C30.7326 15.3783 30.8798 15.1768 30.9762 14.9492C31.0726 14.7216 31.1154 14.4742 31.1013 14.2268C31.1035 13.9963 31.051 13.7687 30.9484 13.5632C30.8592 13.3794 30.7425 13.2107 30.6025 13.0633C30.4254 12.8991 30.2246 12.7637 30.0071 12.6618C29.7388 12.5255 29.5162 12.4217 29.3394 12.3505C29.1624 12.2797 28.9022 12.1841 28.559 12.0637C28.1298 11.9109 27.8079 11.7908 27.5935 11.7034C27.303 11.5775 27.0208 11.4324 26.7488 11.2691C26.456 11.1109 26.1899 10.9063 25.9603 10.663C25.7617 10.4253 25.6014 10.157 25.4857 9.86811C25.2635 9.31728 25.2169 8.70926 25.3526 8.13003C25.4883 7.55079 25.7994 7.02965 26.2419 6.64028C26.8856 6.06136 27.7599 5.77188 28.8647 5.77183C29.7871 5.77183 30.546 5.97937 31.1415 6.39447C31.7195 6.78577 32.1438 7.37166 32.3403 8.04953L30.7956 8.57378C30.6404 8.21877 30.3783 7.92323 30.0473 7.72992C29.6469 7.50376 29.1935 7.39325 28.736 7.41033C28.2873 7.38411 27.8428 7.51098 27.4728 7.77085C27.3217 7.89009 27.2011 8.04471 27.1213 8.22157C27.0415 8.39843 27.0047 8.5923 27.0142 8.78671C27.0156 8.93579 27.0478 9.0829 27.1088 9.21844C27.1697 9.35399 27.2581 9.47491 27.3681 9.57331C27.5819 9.78765 27.8329 9.95986 28.1083 10.0812C28.3659 10.1905 28.7575 10.338 29.2831 10.5236C29.6046 10.644 29.8433 10.7341 29.9989 10.794C30.1545 10.8539 30.3825 10.9549 30.6828 11.0971C30.9236 11.2056 31.155 11.3344 31.3747 11.4822C31.5714 11.6263 31.7594 11.7822 31.9378 11.9492C32.1318 12.1205 32.2976 12.3224 32.4288 12.5472C32.5537 12.7803 32.6509 13.0278 32.7183 13.2844C32.8004 13.5858 32.8411 13.8975 32.8391 14.2103C32.8391 15.281 32.4797 16.1193 31.7609 16.7253C31.0422 17.3318 30.1198 17.635 28.9936 17.6349ZM39.3075 17.4383L35.4456 5.96849H37.2479L39.8063 13.9646C39.9477 14.3946 40.0659 14.8322 40.1603 15.2754C40.2545 14.8322 40.3727 14.3946 40.5143 13.9646L43.0406 5.96842H44.8267L40.9809 17.4383H39.3075ZM48.2376 17.4383V5.96849H55.2211V7.57434H49.9112V10.7203H53.3384V12.3262H49.9112V15.8324H55.575V17.4383H48.2376ZM59.8389 17.4383V5.96849H61.5125V15.7998H67.0155V17.4383L59.8389 17.4383ZM73.3227 7.60699V17.4383H71.6492V7.60699H68.4634V5.96849H76.5087V7.60701L73.3227 7.60699ZM79.9681 17.4383V5.96849H86.9515V7.57434H81.6417V10.7203H85.0689V12.3262H81.6417V15.8324H87.3055V17.4383H79.9681Z" fill="#4A4A55"/>
<path d="M17.2569 3.78698C15.2932 0.92486 11.4148 0.0765179 8.61047 1.89593L3.68547 5.09235C3.02014 5.51858 2.44947 6.08148 2.00993 6.74507C1.57039 7.40866 1.27166 8.15834 1.13283 8.94619C0.897906 10.2733 1.1044 11.6423 1.71961 12.8364C1.29805 13.4876 1.01053 14.2191 0.874425 14.9866C0.734117 15.7903 0.752823 16.6145 0.929446 17.4108C1.10607 18.207 1.43705 18.9593 1.90298 19.6236C3.86715 22.486 7.74561 23.334 10.5495 21.5146L15.4744 18.3182C16.1398 17.892 16.7105 17.3292 17.1501 16.6656C17.5896 16.002 17.8883 15.2523 18.0271 14.4644C18.2619 13.1373 18.0556 11.7684 17.4407 10.5741C17.8621 9.92292 18.1495 9.19146 18.2855 8.42396C18.4259 7.62024 18.4072 6.79607 18.2306 5.9998C18.054 5.20353 17.7229 4.45121 17.2569 3.78698" fill="#FF3E00"/>
<path d="M8.1293 19.8929C7.35428 20.0981 6.53609 20.0561 5.78523 19.7727C5.03437 19.4893 4.38702 18.978 3.93058 18.308C3.65032 17.9086 3.45123 17.4561 3.34499 16.9773C3.23875 16.4984 3.22749 16.0028 3.31189 15.5195C3.34046 15.3608 3.37979 15.2043 3.42958 15.0511L3.52233 14.7631L3.77464 14.9518C4.35736 15.3878 5.00891 15.7193 5.70119 15.9321L5.88424 15.9886L5.8674 16.1746C5.84502 16.4393 5.91539 16.7035 6.06604 16.9203C6.2034 17.1222 6.39828 17.2762 6.62436 17.3616C6.85044 17.4471 7.09683 17.4598 7.33024 17.3981C7.43727 17.369 7.53929 17.3233 7.63274 17.2627L12.5578 14.0667C12.6783 13.9894 12.7817 13.8874 12.8613 13.7672C12.941 13.647 12.9952 13.5112 13.0205 13.3685C13.0458 13.2228 13.0423 13.0735 13.0103 12.9292C12.9783 12.7849 12.9184 12.6485 12.834 12.528C12.6966 12.3262 12.5016 12.1721 12.2755 12.0866C12.0493 12.0011 11.8029 11.9883 11.5694 12.0499C11.4625 12.0791 11.3606 12.1247 11.2672 12.1852L9.38783 13.4052C9.07879 13.6053 8.74153 13.7561 8.38774 13.8525C7.6127 14.0577 6.79449 14.0157 6.0436 13.7323C5.29271 13.4489 4.64533 12.9376 4.18889 12.2675C3.90864 11.8681 3.70955 11.4157 3.6033 10.9368C3.49706 10.458 3.4858 9.96235 3.5702 9.47902C3.65367 9.00527 3.83333 8.55447 4.09766 8.15546C4.362 7.75645 4.70521 7.41801 5.10533 7.16178L10.03 3.96547C10.3392 3.76504 10.6767 3.61404 11.0308 3.5177C11.8058 3.31251 12.624 3.35446 13.3749 3.63788C14.1258 3.92131 14.7731 4.43256 15.2295 5.10259C15.5098 5.50204 15.7089 5.95446 15.8151 6.43331C15.9214 6.91217 15.9326 7.4078 15.8482 7.89114C15.8195 8.04981 15.7802 8.20628 15.7306 8.35948L15.6378 8.64748L15.3856 8.45904C14.8029 8.02279 14.1513 7.69114 13.4589 7.47841L13.2759 7.42184L13.2927 7.23581C13.3149 6.97118 13.2446 6.70708 13.0941 6.49015C12.9567 6.28831 12.7619 6.13427 12.5358 6.04882C12.3097 5.96337 12.0633 5.95064 11.8299 6.01233C11.7229 6.04147 11.6208 6.08713 11.5274 6.14772L6.60228 9.3439C6.48175 9.42112 6.37837 9.5231 6.29873 9.64332C6.2191 9.76353 6.16498 9.89935 6.13981 10.0421C6.11438 10.1877 6.11775 10.3371 6.1497 10.4815C6.18166 10.6258 6.24157 10.7622 6.32593 10.8827C6.46338 11.0845 6.65833 11.2386 6.88448 11.3241C7.11064 11.4096 7.3571 11.4224 7.59061 11.3608C7.69762 11.3316 7.79963 11.2859 7.89311 11.2254L9.77227 10.0058C10.0812 9.80547 10.4184 9.65452 10.7722 9.55824C11.5473 9.35303 12.3655 9.39498 13.1164 9.67841C13.8673 9.96184 14.5146 10.4731 14.9711 11.1431C15.2513 11.5426 15.4504 11.995 15.5567 12.4739C15.6629 12.9527 15.6742 13.4483 15.5898 13.9317C15.5062 14.4055 15.3266 14.8563 15.0622 15.2553C14.7979 15.6544 14.4547 15.9929 14.0546 16.2493L9.13001 19.4451C8.82083 19.6456 8.48333 19.7966 8.12925 19.8929" fill="white"/>
</svg>
