<svg width="91" height="23" viewBox="0 0 91 23" fill="none" xmlns="http://www.w3.org/2000/svg">
<path d="M30.1269 17.3681C29.1724 17.3926 28.233 17.1222 27.4322 16.5927C26.6841 16.0903 26.1285 15.341 25.8589 14.4708L27.4992 13.8571C27.7264 14.3917 28.0979 14.8497 28.5704 15.178C29.05 15.5052 29.6166 15.6748 30.1938 15.6638C30.7487 15.6933 31.2963 15.5245 31.7419 15.1866C31.9358 15.0208 32.089 14.8112 32.1892 14.5745C32.2895 14.3378 32.334 14.0805 32.3193 13.8231C32.3216 13.5833 32.2671 13.3466 32.1603 13.1328C32.0675 12.9416 31.9461 12.7662 31.8005 12.6128C31.6163 12.4421 31.4074 12.3013 31.1812 12.1952C30.9021 12.0534 30.6706 11.9455 30.4867 11.8714C30.3025 11.7978 30.032 11.6984 29.6749 11.5731C29.2284 11.4142 28.8937 11.2892 28.6706 11.1983C28.3684 11.0674 28.0749 10.9164 27.792 10.7466C27.4875 10.582 27.2106 10.3692 26.9718 10.1161C26.7652 9.86892 26.5986 9.58983 26.4781 9.28931C26.247 8.71634 26.1986 8.0839 26.3398 7.48139C26.4809 6.87889 26.8045 6.33681 27.2647 5.9318C27.9343 5.32962 28.8437 5.02851 29.9929 5.02846C30.9524 5.02846 31.7418 5.24434 32.3612 5.67611C32.9623 6.08313 33.4038 6.69256 33.6081 7.39766L32.0013 7.94297C31.8399 7.5737 31.5673 7.26629 31.223 7.06521C30.8066 6.82997 30.335 6.71502 29.8591 6.73278C29.3923 6.70552 28.9299 6.83747 28.5451 7.10779C28.3879 7.23182 28.2625 7.39265 28.1795 7.57662C28.0964 7.76058 28.0582 7.96224 28.0681 8.16446C28.0695 8.31953 28.103 8.47255 28.1664 8.61354C28.2298 8.75452 28.3217 8.8803 28.4361 8.98266C28.6586 9.20561 28.9196 9.38474 29.2061 9.51099C29.474 9.62465 29.8814 9.77803 30.4281 9.97114C30.7626 10.0963 31.0108 10.1901 31.1726 10.2524C31.3345 10.3147 31.5717 10.4198 31.8841 10.5677C32.1345 10.6805 32.3752 10.8145 32.6037 10.9682C32.8083 11.1181 33.0039 11.2803 33.1895 11.454C33.3913 11.6322 33.5637 11.8422 33.7001 12.076C33.8301 12.3185 33.9312 12.5759 34.0013 12.8428C34.0867 13.1564 34.129 13.4805 34.127 13.8059C34.127 14.9196 33.7532 15.7916 33.0055 16.422C32.2579 17.0528 31.2984 17.3682 30.1269 17.3681ZM40.8552 17.1636L36.8382 5.23302H38.7129L41.374 13.5504C41.5212 13.9977 41.6441 14.4528 41.7423 14.9139C41.8403 14.4528 41.9632 13.9976 42.1106 13.5504L44.7383 5.23294H46.5961L42.5958 17.1636H40.8552ZM50.1441 17.1636V5.23302H57.4082V6.90339H51.8849V10.1757H55.4497V11.8461H51.8849V15.4932H57.7762V17.1636H50.1441ZM62.2115 17.1636V5.23302H63.9523V15.4593H69.6763V17.1636L62.2115 17.1636ZM76.237 6.93735V17.1636H74.4962V6.93735H71.1825V5.23302H79.5509V6.93737L76.237 6.93735ZM83.1493 17.1636V5.23302H90.4133V6.90339H84.8902V10.1757H88.455V11.8461H84.8902V15.4932H90.7815V17.1636H83.1493Z" fill="#4A4A55"/>
<path d="M17.9188 2.96385C15.8762 -0.0132434 11.8419 -0.895666 8.92499 0.996843L3.80213 4.32167C3.11008 4.76502 2.51648 5.35054 2.05928 6.04079C1.60209 6.73104 1.29135 7.51084 1.14694 8.33033C0.902583 9.71074 1.11737 11.1347 1.7573 12.3768C1.3188 13.0542 1.01973 13.815 0.878159 14.6134C0.732215 15.4494 0.751672 16.3067 0.93539 17.1349C1.11911 17.9632 1.46339 18.7457 1.94803 19.4367C3.99111 22.4141 8.02538 23.2961 10.9419 21.4037L16.0647 18.0789C16.7568 17.6356 17.3504 17.0501 17.8076 16.3598C18.2648 15.6696 18.5755 14.8897 18.7199 14.0702C18.9642 12.6898 18.7496 11.2659 18.1099 10.0237C18.5483 9.3463 18.8472 8.58546 18.9887 7.78712C19.1347 6.95112 19.1153 6.09383 18.9316 5.26558C18.7479 4.43732 18.4035 3.65477 17.9188 2.96385" fill="#FF3E00"/>
<path d="M8.42449 19.7168C7.61834 19.9302 6.76728 19.8866 5.98625 19.5918C5.20523 19.297 4.53186 18.7652 4.0571 18.0682C3.76558 17.6527 3.55849 17.1821 3.44798 16.6841C3.33746 16.186 3.32576 15.6704 3.41355 15.1677C3.44327 15.0026 3.48417 14.8398 3.53597 14.6805L3.63244 14.3809L3.89488 14.5772C4.50102 15.0308 5.17874 15.3756 5.89884 15.5968L6.08924 15.6556L6.07172 15.8492C6.04844 16.1244 6.12164 16.3992 6.27834 16.6248C6.42122 16.8347 6.62393 16.995 6.85909 17.0839C7.09425 17.1727 7.35054 17.186 7.59333 17.1218C7.70466 17.0915 7.81077 17.044 7.90798 16.981L13.0309 13.6565C13.1562 13.5762 13.2637 13.4701 13.3466 13.345C13.4295 13.22 13.4859 13.0788 13.5122 12.9303C13.5385 12.7788 13.5349 12.6234 13.5016 12.4733C13.4683 12.3232 13.4059 12.1814 13.3182 12.0561C13.1753 11.8461 12.9725 11.6858 12.7372 11.5969C12.502 11.5079 12.2456 11.4946 12.0027 11.5588C11.8916 11.5891 11.7856 11.6365 11.6885 11.6995L9.73357 12.9685C9.41212 13.1766 9.06132 13.3335 8.69332 13.4337C7.88714 13.6471 7.03605 13.6035 6.255 13.3087C5.47395 13.0139 4.80056 12.4821 4.32578 11.7851C4.03427 11.3696 3.82718 10.899 3.71667 10.4009C3.60615 9.90285 3.59445 9.38731 3.68223 8.88455C3.76906 8.39177 3.95593 7.92286 4.23089 7.50782C4.50585 7.09278 4.86284 6.74075 5.27903 6.47423L10.4016 3.1495C10.7232 2.94102 11.0742 2.78395 11.4425 2.68375C12.2487 2.47031 13.0998 2.51394 13.8808 2.80876C14.6618 3.10357 15.3352 3.63536 15.81 4.33231C16.1015 4.7478 16.3086 5.2184 16.4191 5.71649C16.5296 6.21458 16.5413 6.73013 16.4535 7.23289C16.4237 7.39792 16.3828 7.56069 16.3311 7.72004L16.2346 8.01961L15.9723 7.8236C15.3662 7.36982 14.6884 7.02484 13.9682 6.80358L13.7778 6.74473L13.7954 6.55123C13.8184 6.27597 13.7453 6.00125 13.5887 5.77561C13.4459 5.56567 13.2431 5.40543 13.008 5.31655C12.7728 5.22767 12.5165 5.21442 12.2737 5.2786C12.1624 5.3089 12.0563 5.35639 11.9591 5.41942L6.83612 8.74401C6.71075 8.82433 6.60321 8.93041 6.52038 9.05545C6.43755 9.1805 6.38125 9.32177 6.35508 9.47023C6.32863 9.62175 6.33212 9.77713 6.36537 9.92727C6.39861 10.0774 6.46093 10.2193 6.54868 10.3446C6.69164 10.5546 6.89443 10.7148 7.12966 10.8038C7.3649 10.8927 7.62127 10.906 7.86416 10.8419C7.97547 10.8115 8.08157 10.764 8.17881 10.7011L10.1335 9.43252C10.4548 9.22412 10.8056 9.06711 11.1736 8.96695C11.9798 8.75351 12.8309 8.79714 13.6119 9.09196C14.393 9.38677 15.0663 9.91857 15.5411 10.6155C15.8326 11.031 16.0397 11.5016 16.1502 11.9997C16.2607 12.4978 16.2725 13.0133 16.1847 13.5161C16.0978 14.0089 15.9109 14.4778 15.6359 14.8929C15.361 15.308 15.004 15.6602 14.5879 15.9268L9.4654 19.251C9.14381 19.4595 8.79274 19.6166 8.42443 19.7168" fill="white"/>
</svg>
