<svg width="88" height="12" viewBox="0 0 88 12" fill="none" xmlns="http://www.w3.org/2000/svg">
<path fill-rule="evenodd" clip-rule="evenodd" d="M9.72087 0.402016C7.33703 0.402016 5.84713 1.59393 5.25117 3.97777C6.14511 2.78585 7.18804 2.33888 8.37996 2.63686C9.06002 2.80688 9.54609 3.30023 10.0841 3.84636C10.9606 4.736 11.975 5.76565 14.1906 5.76565C16.5744 5.76565 18.0643 4.57373 18.6603 2.18989C17.7663 3.38181 16.7234 3.82878 15.5315 3.5308C14.8514 3.36079 14.3653 2.86743 13.8273 2.3213C12.9509 1.43167 11.9365 0.402016 9.72087 0.402016ZM5.25117 5.76565C2.86734 5.76565 1.37744 6.95757 0.781479 9.34141C1.67542 8.14949 2.71835 7.70252 3.91026 8.0005C4.59032 8.17051 5.07639 8.66387 5.61441 9.21C6.49087 10.0996 7.50526 11.1293 9.72087 11.1293C12.1047 11.1293 13.5946 9.93736 14.1906 7.55353C13.2966 8.74545 12.2537 9.19242 11.0618 8.89444C10.3817 8.72442 9.89565 8.23107 9.35763 7.68494C8.48117 6.7953 7.46678 5.76565 5.25117 5.76565Z" fill="url(#paint0_linear)"/>
<path fill-rule="evenodd" clip-rule="evenodd" d="M27.5983 4.92203H26.0382V7.94156C26.0382 8.74677 26.5667 8.73419 27.5983 8.68386V9.90425C25.5098 10.1559 24.6795 9.57714 24.6795 7.94156V4.92203H23.522V3.61357H24.6795V1.92369L26.0382 1.52109V3.61357H27.5983V4.92203ZM33.5453 3.61357H34.9041V9.90425H33.5453V8.99839C33.0673 9.66521 32.325 10.0678 31.3436 10.0678C29.6325 10.0678 28.2108 8.62095 28.2108 6.75891C28.2108 4.88429 29.6325 3.45001 31.3436 3.45001C32.325 3.45001 33.0673 3.85262 33.5453 4.50685V3.61357ZM31.5575 8.77193C32.6898 8.77193 33.5453 7.92898 33.5453 6.75891C33.5453 5.58884 32.6898 4.74589 31.5575 4.74589C30.4252 4.74589 29.5696 5.58884 29.5696 6.75891C29.5696 7.92898 30.4252 8.77193 31.5575 8.77193ZM37.1688 2.66997C36.6907 2.66997 36.3007 2.26736 36.3007 1.80185C36.3007 1.32376 36.6907 0.93374 37.1688 0.93374C37.6469 0.93374 38.0369 1.32376 38.0369 1.80185C38.0369 2.26736 37.6469 2.66997 37.1688 2.66997ZM36.4894 9.90425V3.61357H37.8482V9.90425H36.4894ZM39.4208 9.90425V0.719856H40.7796V9.90425H39.4208ZM49.5992 3.61357H51.0334L49.0582 9.90425H47.7245L46.4161 5.66433L45.095 9.90425H43.7614L41.7861 3.61357H43.2204L44.4408 7.95414L45.7619 3.61357H47.0577L48.3662 7.95414L49.5992 3.61357ZM52.7193 2.66997C52.2413 2.66997 51.8512 2.26736 51.8512 1.80185C51.8512 1.32376 52.2413 0.93374 52.7193 0.93374C53.1974 0.93374 53.5875 1.32376 53.5875 1.80185C53.5875 2.26736 53.1974 2.66997 52.7193 2.66997ZM52.0399 9.90425V3.61357H53.3987V9.90425H52.0399ZM58.2803 3.45001C59.6894 3.45001 60.6959 4.4062 60.6959 6.04177V9.90425H59.3371V6.18017C59.3371 5.22398 58.7836 4.72073 57.928 4.72073C57.0348 4.72073 56.3302 5.24915 56.3302 6.53245V9.90425H54.9714V3.61357H56.3302V4.41878C56.7454 3.76455 57.4248 3.45001 58.2803 3.45001ZM67.1376 1.0973H68.4964V9.90425H67.1376V8.99839C66.6595 9.66521 65.9172 10.0678 64.9359 10.0678C63.2248 10.0678 61.8031 8.62095 61.8031 6.75891C61.8031 4.88429 63.2248 3.45001 64.9359 3.45001C65.9172 3.45001 66.6595 3.85262 67.1376 4.50685V1.0973ZM65.1497 8.77193C66.2821 8.77193 67.1376 7.92898 67.1376 6.75891C67.1376 5.58884 66.2821 4.74589 65.1497 4.74589C64.0174 4.74589 63.1619 5.58884 63.1619 6.75891C63.1619 7.92898 64.0174 8.77193 65.1497 8.77193ZM73.0508 10.0678C71.151 10.0678 69.7294 8.62095 69.7294 6.75891C69.7294 4.88429 71.151 3.45001 73.0508 3.45001C74.2838 3.45001 75.3532 4.09166 75.8565 5.07301L74.6864 5.7524C74.4096 5.16108 73.7931 4.78364 73.0382 4.78364C71.9311 4.78364 71.0881 5.62659 71.0881 6.75891C71.0881 7.89123 71.9311 8.73419 73.0382 8.73419C73.7931 8.73419 74.4096 8.34416 74.7116 7.76542L75.8816 8.43223C75.3532 9.42616 74.2838 10.0678 73.0508 10.0678ZM78.1211 5.3498C78.1211 6.4947 81.5055 5.80273 81.5055 8.13028C81.5055 9.38842 80.4109 10.0678 79.0521 10.0678C77.794 10.0678 76.8881 9.50165 76.4855 8.59579L77.6556 7.9164C77.8569 8.48256 78.3602 8.82225 79.0521 8.82225C79.656 8.82225 80.1216 8.62095 80.1216 8.1177C80.1216 6.99796 76.7372 7.62703 76.7372 5.37496C76.7372 4.19231 77.7563 3.45001 79.0396 3.45001C80.0712 3.45001 80.9268 3.9281 81.3671 4.75847L80.2222 5.40012C79.9957 4.90945 79.5554 4.68299 79.0396 4.68299C78.5489 4.68299 78.1211 4.89687 78.1211 5.3498ZM83.9211 5.3498C83.9211 6.4947 87.3055 5.80273 87.3055 8.13028C87.3055 9.38842 86.2109 10.0678 84.8521 10.0678C83.594 10.0678 82.6881 9.50165 82.2855 8.59579L83.4556 7.9164C83.6569 8.48256 84.1602 8.82225 84.8521 8.82225C85.4561 8.82225 85.9216 8.62095 85.9216 8.1177C85.9216 6.99796 82.5372 7.62703 82.5372 5.37496C82.5372 4.19231 83.5563 3.45001 84.8396 3.45001C85.8712 3.45001 86.7268 3.9281 87.1671 4.75847L86.0222 5.40012C85.7957 4.90945 85.3554 4.68299 84.8396 4.68299C84.3489 4.68299 83.9211 4.89687 83.9211 5.3498Z" fill="#2D3748"/>
<defs>
<linearGradient id="paint0_linear" x1="0.284846" y1="0.402016" x2="18.6603" y2="10.9968" gradientUnits="userSpaceOnUse">
<stop stop-color="#2298BD"/>
<stop offset="1" stop-color="#0ED7B5"/>
</linearGradient>
</defs>
</svg>
