<svg width="91" height="20" viewBox="0 0 91 20" fill="none" xmlns="http://www.w3.org/2000/svg">
<path d="M7.24531 7.94982L5.70276 9.82761L9.35615 12.8235C9.57486 13.0029 9.84721 13.1 10.1274 13.1C10.1695 13.1 10.2116 13.0977 10.2537 13.0935C10.5769 13.0598 10.8733 12.8984 11.0758 12.6445L17.6293 4.46196L15.7321 2.94299L9.94848 10.1647L7.24531 7.94982Z" fill="#FFB000"/>
<path d="M10.0294 17.3674C6.0773 17.3674 2.86226 14.1524 2.86226 10.2007C2.86226 6.24911 6.0773 3.03314 10.0294 3.03314V0.952362C4.9301 0.952362 0.781479 5.10098 0.781479 10.1998C0.781479 15.2987 4.9301 19.4482 10.0294 19.4482C15.1287 19.4482 19.2773 15.2996 19.2773 10.2007H17.1965C17.1965 14.1524 13.9815 17.3674 10.0294 17.3674Z" fill="#4B6FDE"/>
<path d="M45.0788 15.1149C43.0706 15.1149 41.4352 13.4929 41.4352 11.4843C41.4352 9.47576 43.0198 7.84138 45.074 7.84138V6.46342C42.3054 6.46342 40.0573 8.70967 40.0573 11.478C40.0573 14.2466 42.3121 16.4928 45.0804 16.4928C47.8487 16.4928 50.1013 14.139 50.1013 11.4596H48.7233C48.7233 13.5135 47.0873 15.1149 45.0788 15.1149Z" fill="#4B6FDE"/>
<path d="M38.9116 5.11815V3.86777H26.6757V5.11815H32.1237V16.4608H33.5528V5.11815H38.9116Z" fill="#4B6FDE"/>
<path d="M52.4871 6.36853H51.0581V16.4608H52.4871V6.36853Z" fill="#4B6FDE"/>
<path d="M38.9113 9.76233H37.5717V16.4608H38.9113V9.76233Z" fill="#4B6FDE"/>
<path d="M38.2493 6.41106C37.7101 6.41106 37.2731 6.84805 37.2731 7.38724C37.2731 7.92643 37.7101 8.36311 38.2493 8.36311C38.7878 8.36311 39.2255 7.92611 39.2255 7.38724C39.2255 6.84805 38.7882 6.41106 38.2493 6.41106Z" fill="#4B6FDE"/>
<path d="M58.0469 7.97149L57.0726 6.99721L53.0866 10.9822C52.9575 11.1114 52.8848 11.2866 52.8848 11.4694C52.8848 11.6522 52.9575 11.8274 53.0866 11.9565L57.6635 16.5328L58.6378 15.5585L54.548 11.4694L58.0469 7.97149Z" fill="#4B6FDE"/>
<path d="M77.2225 15.1149C75.2142 15.1149 73.5789 13.4929 73.5789 11.4843C73.5789 9.47576 75.1635 7.84138 77.2177 7.84138V6.46342C74.4491 6.46342 72.2009 8.70967 72.2009 11.478C72.2009 14.2466 74.4558 16.4928 77.224 16.4928C79.9923 16.4928 82.2449 14.139 82.2449 11.4596H80.867C80.867 13.5135 79.231 15.1149 77.2225 15.1149Z" fill="#4B6FDE"/>
<path d="M71.0553 5.11815V3.86777H58.8193V5.11815H64.2674V16.4608H65.6964V5.11815H71.0553Z" fill="#4B6FDE"/>
<path d="M84.6308 6.36853H83.2018V16.4608H84.6308V6.36853Z" fill="#4B6FDE"/>
<path d="M71.055 9.76233H69.7154V16.4608H71.055V9.76233Z" fill="#4B6FDE"/>
<path d="M70.393 6.41106C69.8538 6.41106 69.4168 6.84805 69.4168 7.38724C69.4168 7.92643 69.8538 8.36311 70.393 8.36311C70.9315 8.36311 71.3691 7.92611 71.3691 7.38724C71.3691 6.84805 70.9318 6.41106 70.393 6.41106Z" fill="#4B6FDE"/>
<path d="M90.1905 7.97149L89.2163 6.99721L85.2303 10.9822C85.1011 11.1114 85.0284 11.2866 85.0284 11.4694C85.0284 11.6522 85.1011 11.8274 85.2303 11.9565L89.8072 16.5328L90.7815 15.5585L86.6917 11.4694L90.1905 7.97149Z" fill="#4B6FDE"/>
</svg>
