<svg width="36" height="37" viewBox="0 0 36 37" fill="none" xmlns="http://www.w3.org/2000/svg">
<path d="M18 35.4326C27.5435 35.4326 35.28 27.6961 35.28 18.1526C35.28 8.60914 27.5435 0.87262 18 0.87262C8.45649 0.87262 0.719971 8.60914 0.719971 18.1526C0.719971 27.6961 8.45649 35.4326 18 35.4326Z" fill="#212121"/>
<path fill-rule="evenodd" clip-rule="evenodd" d="M18 0.152588C8.06292 0.152588 0 8.21551 0 18.1526C0 28.0897 8.06292 36.1526 18 36.1526C27.9176 36.1526 36 28.0897 36 18.1526C36 8.21551 27.9176 0.152588 18 0.152588ZM29.8894 8.44976C32.0369 11.0658 33.3254 14.4042 33.3644 18.0159C32.8568 17.9183 27.7809 16.8836 22.666 17.5278C22.5488 17.2741 22.4512 17.0007 22.3341 16.7274C22.0217 15.9856 21.6703 15.2242 21.3189 14.5018C26.9805 12.1982 29.5575 8.87928 29.8894 8.44976ZM18 2.80769C21.9046 2.80769 25.4772 4.27189 28.1909 6.6732C27.9176 7.06365 25.5943 10.1678 20.128 12.2177C17.6095 7.59076 14.8178 3.80335 14.3883 3.21766C15.5401 2.94434 16.7505 2.80769 18 2.80769ZM11.4599 4.25238C11.8698 4.799 14.603 8.60596 17.1605 13.1352C9.97614 15.0485 3.63125 15.0094 2.94794 15.0094C3.94358 10.2459 7.16486 6.28274 11.4599 4.25238ZM2.61605 18.1721C2.61605 18.0159 2.61605 17.8598 2.61605 17.7036C3.27983 17.7231 10.7375 17.8207 18.41 15.517C18.859 16.376 19.269 17.2545 19.6594 18.1331C19.4642 18.1916 19.2495 18.2502 19.0542 18.3088C11.128 20.8663 6.91106 27.8554 6.55967 28.4411C4.1193 25.7274 2.61605 22.1157 2.61605 18.1721ZM18 33.5365C14.4469 33.5365 11.167 32.3261 8.57048 30.2958C8.84383 29.7296 11.9675 23.7166 20.6356 20.6906C20.6746 20.671 20.6941 20.671 20.7332 20.6515C22.9002 26.2545 23.7788 30.9595 24.013 32.3066C22.1584 33.107 20.128 33.5365 18 33.5365ZM26.5705 30.901C26.4143 29.9639 25.5944 25.4736 23.5835 19.9487C28.4057 19.1873 32.6226 20.4368 33.1497 20.6125C32.4859 24.8879 30.026 28.5778 26.5705 30.901Z" fill="white"/>
</svg>
