<svg width="36" height="37" viewBox="0 0 36 37" fill="none" xmlns="http://www.w3.org/2000/svg">
<g clip-path="url(#clip0)">
<path d="M18 0.598083C8.055 0.598083 0 8.65758 0 18.5981C0 26.5526 5.157 33.2981 12.3075 35.6756C13.2075 35.8451 13.5375 35.2886 13.5375 34.8101C13.5375 34.3826 13.5225 33.2501 13.515 31.7501C8.508 32.8361 7.452 29.3351 7.452 29.3351C6.633 27.2576 5.4495 26.7026 5.4495 26.7026C3.819 25.5866 5.5755 25.6091 5.5755 25.6091C7.383 25.7351 8.3325 27.4631 8.3325 27.4631C9.9375 30.2156 12.546 29.4206 13.575 28.9601C13.737 27.7961 14.2005 27.0026 14.715 26.5526C10.7175 26.1026 6.516 24.5546 6.516 17.6576C6.516 15.6926 7.2135 14.0876 8.3685 12.8276C8.166 12.3731 7.5585 10.5431 8.526 8.06358C8.526 8.06358 10.0335 7.58058 13.476 9.90858C14.916 9.50808 16.446 9.31008 17.976 9.30108C19.506 9.31008 21.036 9.50808 22.476 9.90858C25.896 7.58058 27.4035 8.06358 27.4035 8.06358C28.371 10.5431 27.7635 12.3731 27.5835 12.8276C28.731 14.0876 29.4285 15.6926 29.4285 17.6576C29.4285 24.5726 25.221 26.0951 21.216 26.5376C21.846 27.0776 22.431 28.1816 22.431 29.8676C22.431 32.2766 22.4085 34.2116 22.4085 34.7966C22.4085 35.2691 22.7235 35.8316 23.646 35.6516C30.8475 33.2906 36 26.5406 36 18.5981C36 8.65758 27.9405 0.598083 18 0.598083" fill="white"/>
</g>
<defs>
<clipPath id="clip0">
<rect width="36" height="36" fill="white" transform="translate(0 0.152588)"/>
</clipPath>
</defs>
</svg>
