<svg width="610" height="144" viewBox="0 0 610 144" fill="none" xmlns="http://www.w3.org/2000/svg">
<path d="M258.033 69.9296C250.489 68.9067 245.023 68.3953 241.635 68.3953C238.246 68.3953 235.881 68.8108 234.538 69.6419C233.26 70.4091 232.62 71.6557 232.62 73.3818C232.62 75.108 233.324 76.3226 234.73 77.0259C236.2 77.7291 239.589 78.5602 244.895 79.5191C250.265 80.4142 254.069 81.8526 256.307 83.8344C258.544 85.8163 259.663 89.3324 259.663 94.3829C259.663 99.4334 258.033 103.141 254.772 105.507C251.576 107.872 246.877 109.055 240.676 109.055C236.776 109.055 231.853 108.511 225.908 107.425L222.935 106.945L223.319 98.2187C230.99 99.2416 236.52 99.753 239.908 99.753C243.297 99.753 245.694 99.3375 247.101 98.5064C248.571 97.6753 249.306 96.3008 249.306 94.3829C249.306 92.465 248.603 91.1544 247.196 90.4512C245.854 89.684 242.562 88.8849 237.319 88.0538C232.141 87.1588 228.337 85.7843 225.908 83.9303C223.478 82.0763 222.264 78.688 222.264 73.7654C222.264 68.8428 223.926 65.1668 227.25 62.7375C230.639 60.3081 234.954 59.0935 240.196 59.0935C244.288 59.0935 249.306 59.6049 255.252 60.6278L258.224 61.2032L258.033 69.9296ZM280.16 108H269.708V40.1062H280.16V62.5457C284.891 60.1803 289.27 58.9976 293.298 58.9976C299.691 58.9976 304.038 60.8196 306.34 64.4636C308.705 68.0437 309.888 73.9892 309.888 82.3001V108H299.435V82.5878C299.435 77.4094 298.892 73.7335 297.805 71.5598C296.718 69.3862 294.417 68.2994 290.901 68.2994C287.832 68.2994 284.763 68.8108 281.695 69.8337L280.16 70.4091V108ZM322.057 108V60.0524H332.509V108H322.057ZM322.057 51.9013V40.8734H332.509V51.9013H322.057ZM357.75 68.9707V108H347.393V68.9707H341.831V60.0524H347.393V56.9838C347.393 50.1433 348.384 45.4444 350.366 42.8872C352.348 40.33 355.864 39.0514 360.915 39.0514L371.271 40.0103L371.175 48.545C368.043 48.4171 365.422 48.3532 363.312 48.3532C361.266 48.3532 359.828 48.9925 358.997 50.2711C358.166 51.4858 357.75 53.7553 357.75 57.0797V60.0524H370.408V68.9707H357.75ZM404.135 68.9707H390.901V90.0676C390.901 93.9673 391.189 96.5565 391.764 97.8351C392.34 99.1137 393.81 99.753 396.176 99.753L404.039 99.4653L404.518 107.808C400.235 108.639 396.975 109.055 394.737 109.055C389.303 109.055 385.563 107.808 383.517 105.315C381.536 102.822 380.545 98.1228 380.545 91.2183V68.9707H374.407V60.0524H380.545V46.1476H390.901V60.0524H404.135V68.9707Z" fill="#E53935"/>
<path d="M454.614 114.521C454.614 125.005 447.038 130.248 431.887 130.248C424.599 130.248 419.197 129.257 415.681 127.275C412.164 125.293 410.406 121.681 410.406 116.439C410.406 114.073 410.982 112.028 412.132 110.301C413.283 108.639 415.137 106.817 417.694 104.835C415.585 103.429 414.53 101.096 414.53 97.8351C414.53 96.5565 415.393 94.4788 417.119 91.6019L417.982 90.1635C413.379 87.4145 411.078 82.6197 411.078 75.7792C411.078 70.0255 412.804 65.8061 416.256 63.1211C419.708 60.436 424.375 59.0935 430.257 59.0935C433.069 59.0935 435.85 59.4131 438.599 60.0524L440.038 60.3401L454.902 59.9565V68.3953L446.942 67.9158C448.668 70.1534 449.531 72.7745 449.531 75.7792C449.531 82.0444 447.933 86.3916 444.737 88.821C441.604 91.1864 436.682 92.3691 429.969 92.3691C428.307 92.3691 426.9 92.2412 425.749 91.9855C424.854 94.1591 424.407 95.8533 424.407 97.068C424.407 98.2187 424.982 99.0178 426.133 99.4653C427.348 99.9128 430.225 100.169 434.764 100.232C442.371 100.296 447.582 101.319 450.395 103.301C453.207 105.283 454.614 109.023 454.614 114.521ZM420.667 115.48C420.667 117.717 421.562 119.316 423.352 120.275C425.142 121.234 428.211 121.713 432.558 121.713C440.294 121.713 444.161 119.507 444.161 115.096C444.161 112.603 443.458 111.005 442.052 110.301C440.709 109.662 437.992 109.311 433.901 109.247L424.503 108.671C423.096 109.822 422.105 110.877 421.53 111.836C420.955 112.859 420.667 114.073 420.667 115.48ZM421.434 75.7792C421.434 78.72 422.137 80.8936 423.544 82.3001C424.95 83.6426 427.22 84.3139 430.352 84.3139C433.485 84.3139 435.723 83.6426 437.065 82.3001C438.472 80.8936 439.175 78.72 439.175 75.7792C439.175 72.8384 438.472 70.6968 437.065 69.3542C435.659 67.9478 433.389 67.2446 430.257 67.2446C424.375 67.2446 421.434 70.0894 421.434 75.7792ZM497.229 99.3694L499.914 99.0818L500.106 106.849C492.818 108.32 486.361 109.055 480.735 109.055C473.639 109.055 468.524 107.105 465.392 103.205C462.323 99.3055 460.789 93.0723 460.789 84.5057C460.789 67.5003 467.725 58.9976 481.598 58.9976C495.023 58.9976 501.736 66.3176 501.736 80.9576L501.065 88.4374H471.337C471.401 92.4011 472.264 95.3099 473.926 97.1638C475.589 99.0178 478.689 99.9448 483.228 99.9448C487.767 99.9448 492.434 99.753 497.229 99.3694ZM491.475 80.3822C491.475 75.6514 490.708 72.359 489.174 70.505C487.703 68.5871 485.178 67.6281 481.598 67.6281C478.018 67.6281 475.397 68.6191 473.735 70.6009C472.136 72.5827 471.305 75.8432 471.241 80.3822H491.475ZM511.787 108V60.0524H522.24V108H511.787ZM511.787 51.9013V40.8734H522.24V51.9013H511.787ZM568.194 69.9296C560.65 68.9067 555.184 68.3953 551.795 68.3953C548.407 68.3953 546.042 68.8108 544.699 69.6419C543.421 70.4091 542.781 71.6557 542.781 73.3818C542.781 75.108 543.485 76.3226 544.891 77.0259C546.361 77.7291 549.75 78.5602 555.056 79.5191C560.426 80.4142 564.23 81.8526 566.467 83.8344C568.705 85.8163 569.824 89.3324 569.824 94.3829C569.824 99.4334 568.194 103.141 564.933 105.507C561.737 107.872 557.038 109.055 550.836 109.055C546.937 109.055 542.014 108.511 536.069 107.425L533.096 106.945L533.479 98.2187C541.151 99.2416 546.681 99.753 550.069 99.753C553.458 99.753 555.855 99.3375 557.261 98.5064C558.732 97.6753 559.467 96.3008 559.467 94.3829C559.467 92.465 558.764 91.1544 557.357 90.4512C556.015 89.684 552.722 88.8849 547.48 88.0538C542.302 87.1588 538.498 85.7843 536.069 83.9303C533.639 82.0763 532.425 78.688 532.425 73.7654C532.425 68.8428 534.087 65.1668 537.411 62.7375C540.799 60.3081 545.115 59.0935 550.357 59.0935C554.449 59.0935 559.467 59.6049 565.413 60.6278L568.385 61.2032L568.194 69.9296ZM605.665 68.9707H592.431V90.0676C592.431 93.9673 592.719 96.5565 593.294 97.8351C593.869 99.1137 595.34 99.753 597.705 99.753L605.569 99.4653L606.048 107.808C601.765 108.639 598.504 109.055 596.267 109.055C590.833 109.055 587.093 107.808 585.047 105.315C583.065 102.822 582.074 98.1228 582.074 91.2183V68.9707H575.937V60.0524H582.074V46.1476H592.431V60.0524H605.665V68.9707Z" fill="#212121"/>
<path d="M25.6757 41.1279L26.5357 56.4842C26.5357 61.6439 25.6757 65.3703 23.9558 67.6635C22.2359 69.9568 18.6323 71.8405 13.145 73.3147C18.5504 74.707 22.1131 76.6726 23.833 79.2115C25.6348 81.6685 26.5357 85.5178 26.5357 90.7594L25.6757 105.133C25.6757 108.655 26.4538 111.398 28.0099 113.364C29.566 115.248 32.4734 116.312 36.7322 116.558V127.86C27.9689 127.533 21.7445 125.731 18.059 122.455C14.4554 119.261 12.6536 113.978 12.6536 106.607L13.5135 91.7422C13.5135 85.4359 9.00902 81.0542 0 78.5972V68.155C4.66831 67.0902 8.06717 65.5751 10.1966 63.6095C12.4079 61.562 13.5135 58.9412 13.5135 55.7471L12.6536 40.1451C12.6536 32.4465 14.4554 27.041 18.059 23.9288C21.7445 20.7347 28.0099 18.9739 36.8551 18.6463L36.9779 29.9485C32.6372 30.2761 29.6479 31.3408 28.0099 33.1426C26.4538 34.9444 25.6757 37.6062 25.6757 41.1279Z" fill="#212121"/>
<path d="M164.868 105.379L164.008 90.0223C164.008 84.8626 164.868 81.1362 166.588 78.843C168.308 76.5497 171.912 74.666 177.399 73.1918C171.994 71.7995 168.431 69.8339 166.711 67.295C164.909 64.838 164.008 60.9887 164.008 55.7471L164.868 41.3736C164.868 37.8519 164.09 35.1082 162.534 33.1426C160.978 31.2589 158.071 30.1942 153.812 29.9485L153.812 18.6463C162.575 18.9739 168.8 20.7757 172.485 24.0517C176.089 27.2458 177.891 32.5284 177.891 39.8994L177.031 54.7643C177.031 61.0706 181.535 65.4523 190.544 67.9093L190.544 78.3515C185.876 79.4163 182.477 80.9314 180.348 82.897C178.136 84.9445 177.031 87.5653 177.031 90.7594L177.891 106.361C177.891 114.06 176.089 119.465 172.485 122.578C168.8 125.772 162.534 127.533 153.689 127.86L153.566 116.558C157.907 116.23 160.896 115.166 162.534 113.364C164.09 111.562 164.868 108.9 164.868 105.379Z" fill="#212121"/>
<path d="M51.4503 76.2184H114.878L84.543 107.932L51.4503 76.2184Z" fill="#E53935"/>
<mask id="path-5-inside-1" fill="white">
<path d="M91.651 27.4213C92.728 26.3444 94.4741 26.3444 95.551 27.4213L134.551 66.4214C135.628 67.4984 135.628 69.2445 134.551 70.3215L95.5511 109.322C89.0893 115.783 78.6127 115.783 72.151 109.322L52.6509 89.8215C46.1892 83.3598 46.1892 72.8832 52.6509 66.4214L91.651 27.4213Z"/>
</mask>
<path d="M91.651 27.4213C92.728 26.3444 94.4741 26.3444 95.551 27.4213L134.551 66.4214C135.628 67.4984 135.628 69.2445 134.551 70.3215L95.5511 109.322C89.0893 115.783 78.6127 115.783 72.151 109.322L52.6509 89.8215C46.1892 83.3598 46.1892 72.8832 52.6509 66.4214L91.651 27.4213Z" stroke="#212121" stroke-width="22.0618" mask="url(#path-5-inside-1)"/>
<rect x="58.4982" y="25.4713" width="55.1545" height="11.0309" rx="5.51545" transform="rotate(45 58.4982 25.4713)" fill="#212121"/>
<path d="M145.21 103.796C145.21 109.888 140.271 114.827 134.179 114.827C128.087 114.827 123.148 109.888 123.148 103.796C123.148 95.5225 134.179 80.355 134.179 80.355C134.179 80.355 145.21 95.5225 145.21 103.796Z" fill="#E53935"/>
</svg>
