<svg width="36" height="30" viewBox="0 0 36 30" fill="none" xmlns="http://www.w3.org/2000/svg">
<path d="M11.3213 29.7785C24.9062 29.7785 32.3366 18.5235 32.3366 8.76318C32.3366 8.4435 32.3366 8.12527 32.315 7.80847C33.7606 6.7629 35.0084 5.46829 36 3.98527C34.652 4.58258 33.222 4.9743 31.7578 5.14734C33.2996 4.22428 34.4536 2.77246 35.005 1.06206C33.5551 1.9224 31.9689 2.52872 30.3149 2.85487C29.2013 1.67073 27.7284 0.886627 26.1243 0.623892C24.5201 0.361156 22.8741 0.634437 21.441 1.40144C20.0078 2.16845 18.8673 3.38643 18.1961 4.86689C17.5249 6.34735 17.3603 8.00776 17.7278 9.59118C14.7913 9.44397 11.9186 8.68086 9.29612 7.3514C6.67366 6.02193 4.36008 4.15582 2.5056 1.87422C1.56109 3.50022 1.27181 5.42507 1.69665 7.25686C2.12149 9.08865 3.22851 10.6897 4.79232 11.7339C3.61691 11.6991 2.46712 11.382 1.44 10.8094C1.44 10.8397 1.44 10.8713 1.44 10.903C1.44047 12.6083 2.03078 14.2609 3.11081 15.5806C4.19084 16.9002 5.69409 17.8057 7.3656 18.1433C6.27821 18.4399 5.13732 18.4832 4.03056 18.2701C4.50253 19.7377 5.4214 21.0211 6.65866 21.9407C7.89592 22.8604 9.38968 23.3704 10.931 23.3993C8.31562 25.4548 5.08473 26.5707 1.75824 26.5673C1.17058 26.5662 0.583494 26.5306 0 26.4608C3.37772 28.6284 7.30787 29.7781 11.3213 29.7728" fill="white"/>
</svg>
